<svg width="26" height="24" viewBox="0 0 26 24" fill="none" xmlns="http://www.w3.org/2000/svg">
<g clip-path="url(#clip0_1307_6)">
<path fill-rule="evenodd" clip-rule="evenodd" d="M13.0003 0.5C9.91411 0.501478 6.92913 1.51046 4.5791 3.34652C2.22906 5.18259 0.667218 7.72601 0.17283 10.522C-0.321559 13.318 0.283744 16.1842 1.88052 18.6082C3.47729 21.0321 5.9614 22.8558 8.88866 23.753C9.53447 23.8636 9.77772 23.4941 9.77772 23.18C9.77772 22.8658 9.7648 21.955 9.76049 20.9592C6.144 21.6804 5.37981 19.5505 5.37981 19.5505C4.78997 18.1674 3.93751 17.8039 3.93751 17.8039C2.75785 17.065 4.02578 17.0788 4.02578 17.0788C5.33245 17.1637 6.01916 18.3097 6.01916 18.3097C7.1773 20.1333 9.06088 19.6058 9.80139 19.2976C9.91764 18.5251 10.2556 17.9995 10.628 17.7012C7.73914 17.4008 4.70386 16.3774 4.70386 11.8054C4.68596 10.6197 5.16535 9.47305 6.04283 8.60268C5.90937 8.30236 5.46376 7.08923 6.16983 5.44143C6.16983 5.44143 7.26125 5.12135 9.74544 6.66444C11.8762 6.12962 14.1243 6.12962 16.2551 6.66444C18.7372 5.12135 19.8264 5.44143 19.8264 5.44143C20.5346 7.08528 20.089 8.29841 19.9556 8.60268C20.8358 9.47319 21.3162 10.6218 21.2967 11.8094C21.2967 16.3912 18.2549 17.4008 15.3618 17.6952C15.8267 18.0667 16.2422 18.7918 16.2422 19.9061C16.2422 21.5026 16.2271 22.7868 16.2271 23.18C16.2271 23.4981 16.4618 23.8695 17.1205 23.753C20.0481 22.8557 22.5325 21.0317 24.1292 18.6073C25.7259 16.183 26.3309 13.3163 25.836 10.5201C25.341 7.7238 23.7784 5.18035 21.4276 3.34461C19.0768 1.50886 16.0911 0.500541 13.0046 0.5H13.0003Z" fill="white"/>
<path d="M4.92319 17.632C4.89521 17.6913 4.79188 17.7091 4.70792 17.6676C4.62397 17.6261 4.56155 17.549 4.59168 17.4878C4.62182 17.4265 4.723 17.4107 4.80695 17.4522C4.8909 17.4937 4.95548 17.5727 4.92319 17.632Z" fill="white"/>
<path d="M5.45054 18.1714C5.40596 18.192 5.35495 18.1978 5.30626 18.1877C5.25757 18.1776 5.21421 18.1523 5.18361 18.1161C5.09965 18.0331 5.08242 17.9185 5.147 17.8671C5.21158 17.8157 5.32784 17.8395 5.41179 17.9224C5.49575 18.0054 5.51512 18.12 5.45054 18.1714Z" fill="white"/>
<path d="M5.96294 18.857C5.88329 18.9084 5.74767 18.857 5.67232 18.7543C5.65149 18.7359 5.63492 18.7138 5.6236 18.6893C5.61229 18.6649 5.60645 18.6386 5.60645 18.612C5.60645 18.5855 5.61229 18.5592 5.6236 18.5347C5.63492 18.5103 5.65149 18.4882 5.67232 18.4698C5.75197 18.4204 5.8876 18.4698 5.96294 18.5705C6.03829 18.6713 6.04044 18.8057 5.96294 18.857V18.857Z" fill="white"/>
<path d="M6.65821 19.5209C6.58717 19.594 6.44295 19.5742 6.32455 19.4754C6.20615 19.3766 6.17816 19.2423 6.2492 19.1712C6.32024 19.1 6.46447 19.1198 6.58717 19.2166C6.70987 19.3134 6.73355 19.4497 6.65821 19.5209V19.5209Z" fill="white"/>
<path d="M7.6334 19.9081C7.60111 20.001 7.45472 20.0425 7.30834 20.003C7.16196 19.9635 7.06509 19.8528 7.09307 19.758C7.12106 19.6631 7.26959 19.6197 7.41813 19.6631C7.56666 19.7066 7.66138 19.8113 7.6334 19.9081Z" fill="white"/>
<path d="M8.69682 19.9753C8.69682 20.0721 8.57628 20.1551 8.42128 20.1571C8.26629 20.159 8.13928 20.08 8.13928 19.9832C8.13928 19.8864 8.25983 19.8034 8.41482 19.8014C8.56981 19.7995 8.69682 19.8765 8.69682 19.9753Z" fill="white"/>
<path d="M9.68701 19.8232C9.70639 19.92 9.59875 20.0207 9.44376 20.0445C9.28877 20.0682 9.15315 20.0109 9.13377 19.916C9.1144 19.8212 9.22634 19.7185 9.37703 19.6928C9.52771 19.6671 9.66764 19.7264 9.68701 19.8232Z" fill="white"/>
</g>
<defs>
<clipPath id="clip0_1307_6">
<rect width="26" height="24" fill="white"/>
</clipPath>
</defs>
</svg>
