<svg width="48" height="48" xmlns="http://www.w3.org/2000/svg"><svg width="24" height="24" fill="none" viewBox="0 0 24 24" xmlns="http://www.w3.org/2000/svg"><path d="m7.41 15.705 4.59-4.58 4.59 4.58 1.41-1.41-6-6-6 6 1.41 1.41z" fill="#000"/></svg><svg width="24" height="24" fill="none" viewBox="0 0 24 24" x="24" xmlns="http://www.w3.org/2000/svg"><path d="m8.795 15.875-4.17-4.17-1.42 1.41 5.59 5.59 12-12-1.41-1.41-10.59 10.58z" fill="#000"/></svg><svg width="24" height="24" fill="none" viewBox="0 0 24 24" y="24" xmlns="http://www.w3.org/2000/svg"><path d="M19 6.41 17.59 5 12 10.59 6.41 5 5 6.41 10.59 12 5 17.59 6.41 19 12 13.41 17.59 19 19 17.59 13.41 12 19 6.41z" fill="#000"/></svg></svg>