<svg width="26" height="24" viewBox="0 0 26 24" fill="none" xmlns="http://www.w3.org/2000/svg">
<g clip-path="url(#clip0_1307_3)">
<path d="M8.17934 21.75C17.9882 21.75 23.3548 14.2467 23.3548 7.74186C23.3548 7.53092 23.3497 7.3153 23.3396 7.10436C24.3835 6.40746 25.2845 5.54425 26 4.5553C25.0277 4.9546 23.9954 5.21538 22.9384 5.32874C24.0514 4.71291 24.8847 3.74547 25.284 2.60577C24.2369 3.17856 23.0919 3.58261 21.8979 3.80061C21.0934 3.01156 20.0297 2.48912 18.8713 2.31405C17.7129 2.13899 16.5243 2.32105 15.4892 2.8321C14.4541 3.34314 13.6303 4.15471 13.145 5.14131C12.6597 6.12792 12.54 7.23462 12.8045 8.2903C10.6844 8.19209 8.61026 7.6837 6.71665 6.7981C4.82303 5.91249 3.15217 4.66944 1.81238 3.14952C1.13143 4.23324 0.923061 5.51565 1.22962 6.73609C1.53617 7.95654 2.33465 9.02345 3.46277 9.71999C2.61585 9.69517 1.78747 9.48468 1.04609 9.10592V9.16686C1.04534 10.3041 1.47127 11.4066 2.2515 12.2868C3.03173 13.167 4.1181 13.7706 5.32594 13.995C4.54139 14.1931 3.71798 14.222 2.91941 14.0794C3.26024 15.0574 3.92337 15.9129 4.81625 16.5263C5.70913 17.1398 6.78721 17.4806 7.90004 17.5012C6.01079 18.8711 3.67702 19.6141 1.27461 19.6106C0.848561 19.61 0.422932 19.5859 0 19.5384C2.44059 20.9837 5.27966 21.7514 8.17934 21.75Z" fill="white"/>
</g>
<defs>
<clipPath id="clip0_1307_3">
<rect width="26" height="24" fill="white"/>
</clipPath>
</defs>
</svg>
