<svg width="9" height="14" fill="none" xmlns="http://www.w3.org/2000/svg"><path d="M4.357 2.147c-.012-.012-.023-.024-.037-.033-.005-.005-.012-.01-.02-.014-.006-.005-.013-.012-.02-.016a25.738 25.738 0 0 1-.042-.026c-.007-.005-.014-.007-.024-.012-.007-.002-.014-.007-.02-.01-.008-.002-.015-.004-.024-.009-.007-.002-.017-.004-.024-.009a.07.07 0 0 0-.023-.005l-.026-.007-.026-.004c-.007 0-.014-.003-.02-.003a.688.688 0 0 0-.1 0c-.006 0-.013.003-.02.003-.01.002-.02.002-.026.004l-.026.007c-.007.003-.014.005-.023.005-.007.002-.017.005-.024.01-.007.002-.014.004-.023.009-.007.002-.014.007-.021.01-.007.004-.017.006-.024.01-.007.006-.014.008-.021.013l-.021.014c-.007.004-.014.009-.021.016l-.019.014a.472.472 0 0 0-.037.033l-3.5 3.5a.5.5 0 1 0 .708.708l2.651-2.647V11.5c0 .274.225.499.5.499.273 0 .498-.225.498-.5V3.709l2.65 2.646a.5.5 0 1 0 .708-.708l-3.503-3.5ZM.5 14.001h7a.5.5 0 0 0 0-1h-7a.5.5 0 0 0 0 1Z" fill="#FFF"/></svg>