<svg width="168" height="144" xmlns="http://www.w3.org/2000/svg"><view viewBox="144 0 24 24"/><svg width="24" height="24" fill="none" viewBox="0 0 24 24" x="144" xmlns="http://www.w3.org/2000/svg"><path d="m7.41 15.705 4.59-4.58 4.59 4.58 1.41-1.41-6-6-6 6 1.41 1.41z" fill="inherit"/></svg><view viewBox="144 24 24 24"/><svg width="24" height="24" fill="none" viewBox="0 0 24 24" x="144" y="24" xmlns="http://www.w3.org/2000/svg"><path d="m8.795 15.875-4.17-4.17-1.42 1.41 5.59 5.59 12-12-1.41-1.41-10.59 10.58z" fill="red"/></svg><view viewBox="144 48 24 24"/><svg width="24" height="24" fill="none" viewBox="0 0 24 24" x="144" y="48" xmlns="http://www.w3.org/2000/svg"><path d="M19 6.41 17.59 5 12 10.59 6.41 5 5 6.41 10.59 12 5 17.59 6.41 19 12 13.41 17.59 19 19 17.59 13.41 12 19 6.41z" fill="inherit"/></svg><view viewBox="0 0 144 144"/><svg width="144" height="144" viewBox="0 0 144 144" xmlns="http://www.w3.org/2000/svg"><view viewBox="0 120 24 24"/><svg width="24" height="24" fill="none" y="120"><path d="m7.41 15.705 4.59-4.58 4.59 4.58 1.41-1.41-6-6-6 6 1.41 1.41z" fill="#000"/></svg><view viewBox="24 120 24 24"/><svg width="24" height="24" fill="none" x="24" y="120"><path d="m8.795 15.875-4.17-4.17-1.42 1.41 5.59 5.59 12-12-1.41-1.41-10.59 10.58z" fill="currentColor"/></svg><view viewBox="48 120 24 24"/><svg width="24" height="24" fill="currentColor" x="48" y="120"><path d="M19 6.41 17.59 5 12 10.59 6.41 5 5 6.41 10.59 12 5 17.59 6.41 19 12 13.41 17.59 19 19 17.59 13.41 12 19 6.41z"/></svg><view viewBox="0 0 144 120"/><svg width="144" height="120"><view viewBox="120 0 24 24"/><svg width="24" height="24" fill="currentColor" x="120"><path d="m7.41 15.705 4.59-4.58 4.59 4.58 1.41-1.41-6-6-6 6 1.41 1.41z"/></svg><view viewBox="120 24 24 24"/><svg width="24" height="24" fill="currentColor" x="120" y="24"><path d="m8.795 15.875-4.17-4.17-1.42 1.41 5.59 5.59 12-12-1.41-1.41-10.59 10.58z"/></svg><view viewBox="120 48 24 24"/><svg width="24" height="24" fill="currentColor" x="120" y="48"><path d="M19 6.41 17.59 5 12 10.59 6.41 5 5 6.41 10.59 12 5 17.59 6.41 19 12 13.41 17.59 19 19 17.59 13.41 12 19 6.41z"/></svg><view viewBox="0 0 120 120"/><svg width="120" height="120"><view viewBox="0 96 24 24"/><svg width="24" height="24" fill="currentColor" y="96"><path d="m7.41 15.705 4.59-4.58 4.59 4.58 1.41-1.41-6-6-6 6 1.41 1.41z"/></svg><view viewBox="24 96 24 24"/><svg width="24" height="24" fill="currentColor" x="24" y="96"><path d="m8.795 15.875-4.17-4.17-1.42 1.41 5.59 5.59 12-12-1.41-1.41-10.59 10.58z"/></svg><view viewBox="48 96 24 24"/><svg width="24" height="24" fill="currentColor" x="48" y="96"><path d="M19 6.41 17.59 5 12 10.59 6.41 5 5 6.41 10.59 12 5 17.59 6.41 19 12 13.41 17.59 19 19 17.59 13.41 12 19 6.41z"/></svg><view viewBox="0 0 120 96"/><svg width="120" height="96"><view viewBox="96 0 24 24"/><svg width="24" height="24" fill="currentColor" x="96"><path d="m7.41 15.705 4.59-4.58 4.59 4.58 1.41-1.41-6-6-6 6 1.41 1.41z"/></svg><view viewBox="96 24 24 24"/><svg width="24" height="24" fill="currentColor" x="96" y="24"><path d="m8.795 15.875-4.17-4.17-1.42 1.41 5.59 5.59 12-12-1.41-1.41-10.59 10.58z"/></svg><view viewBox="96 48 24 24"/><svg width="24" height="24" fill="currentColor" x="96" y="48"><path d="M19 6.41 17.59 5 12 10.59 6.41 5 5 6.41 10.59 12 5 17.59 6.41 19 12 13.41 17.59 19 19 17.59 13.41 12 19 6.41z"/></svg><view viewBox="0 0 96 96"/><svg width="96" height="96"><view viewBox="0 72 24 24"/><svg width="24" height="24" fill="currentColor" y="72"><path d="m7.41 15.705 4.59-4.58 4.59 4.58 1.41-1.41-6-6-6 6 1.41 1.41z"/></svg><view viewBox="24 72 24 24"/><svg width="24" height="24" fill="none" x="24" y="72"><path d="m8.795 15.875-4.17-4.17-1.42 1.41 5.59 5.59 12-12-1.41-1.41-10.59 10.58z" fill="currentColor"/></svg><view viewBox="48 72 24 24"/><svg width="24" height="24" fill="currentColor" x="48" y="72"><path d="M19 6.41 17.59 5 12 10.59 6.41 5 5 6.41 10.59 12 5 17.59 6.41 19 12 13.41 17.59 19 19 17.59 13.41 12 19 6.41z"/></svg><view viewBox="0 0 96 72"/><svg width="96" height="72"><view viewBox="72 0 24 24"/><svg width="24" height="24" fill="none" x="72"><path d="m7.41 15.705 4.59-4.58 4.59 4.58 1.41-1.41-6-6-6 6 1.41 1.41z" fill="#000"/></svg><view viewBox="72 24 24 24"/><svg width="24" height="24" fill="none" x="72" y="24"><path d="m8.795 15.875-4.17-4.17-1.42 1.41 5.59 5.59 12-12-1.41-1.41-10.59 10.58z" fill="#000"/></svg><view viewBox="72 48 24 24"/><svg width="24" height="24" fill="none" x="72" y="48"><path d="M19 6.41 17.59 5 12 10.59 6.41 5 5 6.41 10.59 12 5 17.59 6.41 19 12 13.41 17.59 19 19 17.59 13.41 12 19 6.41z" fill="#000"/></svg><view viewBox="0 0 72 72"/><svg width="72" height="72"><view viewBox="48 0 24 24"/><svg width="24" height="24" fill="none" x="48"><path d="m7.41 15.705 4.59-4.58 4.59 4.58 1.41-1.41-6-6-6 6 1.41 1.41z" fill="#000"/></svg><view viewBox="48 24 24 24"/><svg width="24" height="24" fill="none" x="48" y="24"><path d="m8.795 15.875-4.17-4.17-1.42 1.41 5.59 5.59 12-12-1.41-1.41-10.59 10.58z" fill="#000"/></svg><view viewBox="0 48 24 24"/><svg width="24" height="24" fill="none" y="48"><path d="M19 6.41 17.59 5 12 10.59 6.41 5 5 6.41 10.59 12 5 17.59 6.41 19 12 13.41 17.59 19 19 17.59 13.41 12 19 6.41z" fill="#000"/></svg><view viewBox="0 0 48 48"/><svg width="48" height="48"><view viewBox="0 0 24 24"/><svg width="24" height="24" fill="none"><path d="m7.41 15.705 4.59-4.58 4.59 4.58 1.41-1.41-6-6-6 6 1.41 1.41z" fill="#000"/></svg><view viewBox="24 0 24 24"/><svg width="24" height="24" fill="none" x="24"><path d="m8.795 15.875-4.17-4.17-1.42 1.41 5.59 5.59 12-12-1.41-1.41-10.59 10.58z" fill="#000"/></svg><view viewBox="0 24 24 24"/><svg width="24" height="24" fill="none" y="24"><path d="M19 6.41 17.59 5 12 10.59 6.41 5 5 6.41 10.59 12 5 17.59 6.41 19 12 13.41 17.59 19 19 17.59 13.41 12 19 6.41z" fill="#000"/></svg></svg></svg></svg></svg></svg></svg></svg></svg></svg>