<svg width="315" height="108" fill="none" xmlns="http://www.w3.org/2000/svg"><path d="M13.29 14.751h3.295c-.105 1.257-.457 2.377-1.055 3.362-.597.975-1.437 1.744-2.518 2.307-1.08.562-2.395.844-3.942.844-1.186 0-2.254-.211-3.203-.633a7.023 7.023 0 01-2.44-1.82c-.676-.79-1.195-1.744-1.555-2.86-.351-1.117-.527-2.365-.527-3.745v-1.595c0-1.38.18-2.628.54-3.744.37-1.116.897-2.07 1.582-2.86a6.839 6.839 0 012.466-1.833c.966-.422 2.052-.633 3.256-.633 1.53 0 2.821.281 3.876.844 1.055.562 1.872 1.34 2.452 2.333.589.993.95 2.132 1.081 3.415h-3.296c-.088-.826-.281-1.534-.58-2.123a2.99 2.99 0 00-1.292-1.344c-.571-.317-1.318-.475-2.241-.475-.756 0-1.415.14-1.978.422a3.733 3.733 0 00-1.41 1.239c-.378.545-.664 1.217-.857 2.017-.185.791-.277 1.696-.277 2.716v1.621c0 .967.083 1.846.25 2.637.176.783.44 1.455.792 2.017.36.563.817.998 1.37 1.306.554.307 1.218.461 1.991.461.94 0 1.701-.15 2.281-.448a2.989 2.989 0 001.332-1.305c.307-.58.51-1.288.606-2.123zm9.175-5.3V21h-3.177V6.735h3.032l.145 2.716zm4.364-2.808l-.027 2.953a6.213 6.213 0 00-.633-.079 8.26 8.26 0 00-.659-.026c-.545 0-1.024.079-1.437.237-.413.15-.76.37-1.041.66a2.902 2.902 0 00-.633 1.027 4.6 4.6 0 00-.264 1.358l-.725.053c0-.896.088-1.727.264-2.492a6.86 6.86 0 01.79-2.017c.361-.58.81-1.032 1.346-1.358.545-.325 1.173-.487 1.885-.487.193 0 .4.017.62.052.228.036.4.075.514.12zm9.558 11.496v-6.803c0-.51-.093-.949-.277-1.318a1.939 1.939 0 00-.844-.857c-.369-.202-.835-.303-1.397-.303-.519 0-.967.088-1.345.264a2.174 2.174 0 00-.883.712 1.715 1.715 0 00-.317 1.015H28.16c0-.563.136-1.108.409-1.635a4.37 4.37 0 011.186-1.41 5.889 5.889 0 011.86-.976c.72-.238 1.529-.356 2.425-.356 1.072 0 2.022.18 2.848.54a4.33 4.33 0 011.964 1.635c.483.72.725 1.626.725 2.716v6.341c0 .65.044 1.235.132 1.753.097.51.233.954.409 1.332V21H36.86c-.15-.343-.268-.778-.356-1.305a10.659 10.659 0 01-.118-1.556zm.461-5.814l.026 1.965h-2.28c-.59 0-1.108.057-1.556.17-.448.106-.822.265-1.12.475a2.062 2.062 0 00-.673.765c-.15.299-.224.637-.224 1.015 0 .378.088.725.264 1.042.175.307.43.55.764.725.343.176.756.264 1.24.264.65 0 1.217-.132 1.7-.396.492-.272.88-.602 1.16-.989.282-.395.431-.769.449-1.12l1.028 1.41c-.105.36-.286.747-.54 1.16a5.615 5.615 0 01-1.002 1.187c-.405.37-.893.672-1.464.91-.562.237-1.213.356-1.951.356-.932 0-1.762-.185-2.492-.554-.73-.378-1.3-.883-1.714-1.516a3.934 3.934 0 01-.62-2.175c0-.756.141-1.424.423-2.004a3.928 3.928 0 011.265-1.477c.563-.395 1.248-.694 2.057-.896.809-.211 1.731-.317 2.768-.317h2.492zM47.198 21H44.02V5.364c0-1.063.198-1.955.593-2.676.405-.73.98-1.279 1.727-1.648.747-.378 1.63-.567 2.65-.567.317 0 .629.022.936.066.308.035.607.092.897.171l-.08 2.453a3.645 3.645 0 00-.58-.093 7.64 7.64 0 00-.659-.026c-.483 0-.9.092-1.252.277a1.827 1.827 0 00-.791.778c-.176.342-.264.764-.264 1.265V21zm2.94-14.265v2.32h-8.306v-2.32h8.305zm8.845 0v2.32h-8.042v-2.32h8.042zm-5.721-3.493h3.177v13.816c0 .44.062.778.184 1.015a.987.987 0 00.541.462c.229.079.497.118.804.118.22 0 .43-.013.633-.04a6.4 6.4 0 00.488-.078l.013 2.425a7.81 7.81 0 01-.923.211 6.78 6.78 0 01-1.186.093c-.73 0-1.376-.128-1.938-.383-.563-.263-1.002-.69-1.319-1.279-.316-.588-.474-1.37-.474-2.346V3.242zm18.773 14.594l3.296-11.1h2.03l-.553 3.322L73.485 21h-1.819l.37-3.164zm-1.938-11.1l2.571 11.153.21 3.111h-2.03L66.987 6.735h3.111zm10.35 11.02l2.491-11.02h3.098L82.186 21h-2.03l.29-3.243zm-2.743-11.02l3.256 10.968.41 3.296h-1.82l-3.362-10.956-.554-3.309h2.07zm13.896 0V21h-3.19V6.735h3.19zM88.198 2.99c0-.483.158-.883.475-1.2.325-.325.773-.487 1.345-.487.562 0 1.006.162 1.331.488.325.316.488.716.488 1.2 0 .474-.163.87-.488 1.186-.325.316-.769.474-1.331.474-.572 0-1.02-.158-1.345-.474-.317-.317-.475-.712-.475-1.187zm13.421 3.744v2.32h-8.042v-2.32h8.042zm-5.722-3.493h3.178v13.816c0 .44.061.778.184 1.015a.987.987 0 00.54.462c.229.079.497.118.805.118.22 0 .431-.013.633-.04a6.44 6.44 0 00.488-.078l.013 2.425a7.81 7.81 0 01-.923.211 6.78 6.78 0 01-1.187.093c-.73 0-1.375-.128-1.938-.383-.562-.263-1.001-.69-1.318-1.279-.316-.588-.475-1.37-.475-2.346V3.242zM107.21.75V21h-3.164V.75h3.164zm-.554 12.59l-1.028-.013a9.296 9.296 0 01.409-2.729c.272-.835.65-1.56 1.133-2.175a5.05 5.05 0 014.048-1.951c.703 0 1.336.096 1.898.29a3.623 3.623 0 011.477.936c.413.422.725.975.936 1.66.22.678.329 1.504.329 2.48V21h-3.19v-9.189c0-.685-.101-1.23-.303-1.635a1.76 1.76 0 00-.857-.87c-.378-.184-.84-.277-1.384-.277-.572 0-1.077.115-1.517.343a3.17 3.17 0 00-1.081.936 4.34 4.34 0 00-.659 1.371 6.35 6.35 0 00-.211 1.661zm22.768-11.535V21h-3.309V1.805h3.309zm7.831 8.398v2.623h-8.674v-2.623h8.674zm1.095-8.398V4.44h-9.769V1.805h9.769zm5.168 7.646V21h-3.178V6.735h3.033l.145 2.716zm4.363-2.808l-.026 2.953a6.189 6.189 0 00-.633-.079 8.257 8.257 0 00-.659-.026c-.545 0-1.024.079-1.437.237-.413.15-.76.37-1.042.66a2.9 2.9 0 00-.632 1.027 4.57 4.57 0 00-.264 1.358l-.725.053c0-.896.088-1.727.264-2.492a6.774 6.774 0 01.791-2.017 4.06 4.06 0 011.344-1.358c.545-.325 1.174-.487 1.886-.487.193 0 .399.017.619.052.229.036.4.075.514.12zm9.558 11.496v-6.803c0-.51-.092-.949-.276-1.318a1.94 1.94 0 00-.844-.857c-.369-.202-.835-.303-1.398-.303-.518 0-.966.088-1.344.264a2.176 2.176 0 00-.884.712 1.717 1.717 0 00-.316 1.015h-3.164c0-.563.136-1.108.409-1.635a4.37 4.37 0 011.186-1.41 5.883 5.883 0 011.859-.976c.721-.238 1.529-.356 2.426-.356 1.072 0 2.021.18 2.847.54.835.36 1.49.905 1.965 1.635.483.72.725 1.626.725 2.716v6.341c0 .65.044 1.235.132 1.753.096.51.233.954.408 1.332V21h-3.256c-.149-.343-.268-.778-.356-1.305a10.674 10.674 0 01-.119-1.556zm.462-5.814l.026 1.965h-2.28c-.589 0-1.108.057-1.556.17-.448.106-.822.265-1.121.475a2.055 2.055 0 00-.672.765c-.15.299-.224.637-.224 1.015 0 .378.088.725.263 1.042.176.307.431.55.765.725.343.176.756.264 1.239.264.651 0 1.218-.132 1.701-.396.492-.272.879-.602 1.16-.989.281-.395.431-.769.448-1.12l1.029 1.41a4.85 4.85 0 01-.541 1.16 5.625 5.625 0 01-1.002 1.187c-.404.37-.892.672-1.463.91-.563.237-1.213.356-1.951.356-.932 0-1.763-.185-2.492-.554-.729-.378-1.301-.883-1.714-1.516-.413-.642-.619-1.367-.619-2.175 0-.756.14-1.424.421-2.004a3.926 3.926 0 011.266-1.477c.563-.395 1.248-.694 2.057-.896.808-.211 1.731-.317 2.768-.317h2.492zm11.878 6.407c.519 0 .985-.1 1.398-.303.422-.21.76-.5 1.015-.87a2.37 2.37 0 00.435-1.279h2.993a4.454 4.454 0 01-.818 2.518c-.527.756-1.226 1.358-2.096 1.807-.87.439-1.832.659-2.887.659-1.09 0-2.039-.185-2.848-.554a5.635 5.635 0 01-2.017-1.556 6.86 6.86 0 01-1.213-2.28 9.433 9.433 0 01-.395-2.769v-.461c0-.985.132-1.908.395-2.769a6.839 6.839 0 011.213-2.294 5.506 5.506 0 012.017-1.542c.809-.378 1.754-.567 2.835-.567 1.142 0 2.144.228 3.006.685a5.063 5.063 0 012.03 1.885c.501.8.76 1.732.778 2.795h-2.993a3.173 3.173 0 00-.396-1.423 2.606 2.606 0 00-.975-1.029c-.413-.255-.91-.382-1.49-.382-.641 0-1.173.132-1.595.395a2.658 2.658 0 00-.989 1.055c-.237.44-.409.936-.514 1.49a9.69 9.69 0 00-.145 1.7v.462c0 .589.048 1.16.145 1.714a4.9 4.9 0 00.501 1.49c.246.43.58.777 1.002 1.041.422.255.958.382 1.608.382zm14.819-11.997v2.32h-8.042v-2.32h8.042zm-5.722-3.493h3.177v13.816c0 .44.062.778.185 1.015a.988.988 0 00.54.462c.229.079.497.118.805.118.219 0 .43-.013.632-.04.203-.026.365-.052.488-.078l.013 2.425a8.03 8.03 0 01-.923.211 6.769 6.769 0 01-1.186.093c-.73 0-1.376-.128-1.938-.383-.563-.263-1.002-.69-1.318-1.279-.317-.588-.475-1.37-.475-2.346V3.242zm16.216 14.897v-6.803c0-.51-.092-.949-.277-1.318a1.94 1.94 0 00-.844-.857c-.369-.202-.835-.303-1.397-.303-.519 0-.967.088-1.345.264a2.173 2.173 0 00-.883.712 1.718 1.718 0 00-.317 1.015h-3.164c0-.563.136-1.108.409-1.635a4.37 4.37 0 011.186-1.41 5.894 5.894 0 011.859-.976c.721-.238 1.53-.356 2.426-.356 1.072 0 2.022.18 2.848.54.835.36 1.49.905 1.964 1.635.484.72.725 1.626.725 2.716v6.341c0 .65.044 1.235.132 1.753.097.51.233.954.409 1.332V21h-3.257c-.149-.343-.268-.778-.356-1.305a10.67 10.67 0 01-.118-1.556zm.461-5.814l.027 1.965h-2.281c-.589 0-1.108.057-1.556.17-.448.106-.822.265-1.12.475a2.067 2.067 0 00-.673.765 2.244 2.244 0 00-.224 1.015c0 .378.088.725.264 1.042.176.307.43.55.764.725.343.176.756.264 1.24.264.65 0 1.217-.132 1.7-.396.493-.272.879-.602 1.161-.989.281-.395.43-.769.448-1.12l1.028 1.41a4.84 4.84 0 01-.54 1.16 5.625 5.625 0 01-1.002 1.187 4.98 4.98 0 01-1.464.91c-.562.237-1.213.356-1.951.356-.932 0-1.762-.185-2.492-.554-.729-.378-1.3-.883-1.714-1.516-.413-.642-.619-1.367-.619-2.175 0-.756.14-1.424.422-2.004a3.932 3.932 0 011.265-1.477c.563-.395 1.248-.694 2.057-.896.809-.211 1.731-.317 2.769-.317h2.491zM205.005.75V21h-3.191V.75h3.191zM42.041 88.103c0-1.106-.163-2.1-.488-2.978-.326-.912-.928-1.758-1.807-2.54-.879-.78-2.148-1.562-3.809-2.343-1.627-.814-3.776-1.66-6.445-2.539a96.296 96.296 0 01-9.033-3.516c-2.897-1.334-5.485-2.88-7.764-4.638-2.278-1.79-4.085-3.874-5.42-6.25C5.941 60.89 5.273 58.09 5.273 54.9c0-3.06.684-5.81 2.051-8.252 1.367-2.474 3.272-4.573 5.713-6.298 2.474-1.758 5.371-3.093 8.691-4.004 3.32-.944 6.95-1.416 10.89-1.416 5.207 0 9.797.911 13.769 2.734 4.004 1.79 7.129 4.346 9.375 7.666C58.04 48.618 59.18 52.508 59.18 57H42.139c0-1.79-.375-3.37-1.123-4.736-.716-1.367-1.807-2.442-3.272-3.223-1.465-.781-3.304-1.172-5.517-1.172-2.149 0-3.955.326-5.42.977-1.465.65-2.572 1.53-3.32 2.636a6.096 6.096 0 00-1.124 3.565c0 1.074.293 2.05.88 2.93.618.846 1.48 1.643 2.587 2.392 1.14.749 2.507 1.465 4.102 2.149 1.627.683 3.45 1.35 5.468 2.001 3.776 1.205 7.13 2.556 10.059 4.053 2.962 1.465 5.452 3.141 7.47 5.03 2.051 1.855 3.598 3.97 4.64 6.347 1.074 2.377 1.61 5.062 1.61 8.057 0 3.19-.618 6.022-1.855 8.496s-3.01 4.574-5.322 6.299c-2.311 1.692-5.078 2.978-8.3 3.857-3.224.879-6.82 1.319-10.792 1.319a43.18 43.18 0 01-10.79-1.368c-3.517-.944-6.707-2.376-9.571-4.297a22.264 22.264 0 01-6.885-7.47c-1.693-3.06-2.539-6.69-2.539-10.889h17.188c0 2.084.276 3.841.83 5.274.553 1.432 1.367 2.587 2.441 3.466 1.074.847 2.393 1.465 3.955 1.856 1.563.358 3.353.537 5.371.537 2.181 0 3.939-.31 5.274-.928 1.334-.65 2.31-1.497 2.93-2.539a6.923 6.923 0 00.927-3.516zm74.902 5.713V107h-37.89V93.816h37.89zm-31.787-57.91V107H68.018V35.906h17.138zm26.905 28.223v12.744H79.053V64.129h33.008zm5.029-28.223V49.14H79.053V35.906h38.037zm42.285 0V107h-17.139V35.906h17.139zm21.387 0V49.14h-59.424V35.906h59.424zm45.849 0h17.139v46.436c0 5.534-1.156 10.221-3.467 14.062-2.311 3.809-5.55 6.69-9.717 8.643-4.166 1.953-9.065 2.93-14.697 2.93-5.566 0-10.465-.977-14.697-2.93-4.199-1.953-7.487-4.834-9.863-8.643-2.344-3.84-3.516-8.528-3.516-14.062V35.906h17.187v46.436c0 2.93.424 5.322 1.27 7.177.846 1.823 2.083 3.158 3.711 4.004 1.628.847 3.597 1.27 5.908 1.27 2.344 0 4.313-.423 5.908-1.27 1.595-.846 2.8-2.18 3.614-4.004.813-1.855 1.22-4.248 1.22-7.177V35.906zM282.91 82.88h-17.676V69.646h17.676c2.409 0 4.362-.406 5.86-1.22 1.497-.814 2.587-1.937 3.271-3.37.716-1.464 1.074-3.108 1.074-4.931 0-1.953-.358-3.76-1.074-5.42a8.75 8.75 0 00-3.271-4.004c-1.498-1.041-3.451-1.562-5.86-1.562h-11.23V107h-17.139V35.906h28.369c5.697 0 10.596 1.042 14.697 3.125 4.135 2.084 7.308 4.948 9.522 8.594 2.213 3.613 3.32 7.747 3.32 12.402 0 4.59-1.107 8.594-3.32 12.012-2.214 3.418-5.387 6.087-9.522 8.008-4.101 1.888-9 2.832-14.697 2.832z" fill="#000"/></svg>