<svg width="315" height="108" viewBox="0 0 315 108" fill="none" xmlns="http://www.w3.org/2000/svg">
<path d="M13.2891 14.751H16.585C16.4795 16.0078 16.1279 17.1284 15.5303 18.1128C14.9326 19.0884 14.0933 19.8574 13.0122 20.4199C11.9312 20.9824 10.6172 21.2637 9.07031 21.2637C7.88379 21.2637 6.81592 21.0527 5.8667 20.6309C4.91748 20.2002 4.10449 19.5938 3.42773 18.8115C2.75098 18.0205 2.23242 17.0669 1.87207 15.9507C1.52051 14.8345 1.34473 13.5864 1.34473 12.2065V10.6113C1.34473 9.23145 1.5249 7.9834 1.88525 6.86719C2.25439 5.75098 2.78174 4.79736 3.46729 4.00635C4.15283 3.20654 4.97461 2.5957 5.93262 2.17383C6.89941 1.75195 7.98486 1.54102 9.18896 1.54102C10.7183 1.54102 12.0103 1.82227 13.0649 2.38477C14.1196 2.94727 14.937 3.7251 15.5171 4.71826C16.106 5.71143 16.4663 6.84961 16.5981 8.13281H13.3022C13.2144 7.30664 13.021 6.59912 12.7222 6.01025C12.4321 5.42139 12.0015 4.97314 11.4302 4.66553C10.8589 4.34912 10.1118 4.19092 9.18896 4.19092C8.43311 4.19092 7.77393 4.33154 7.21143 4.61279C6.64893 4.89404 6.17871 5.30713 5.80078 5.85205C5.42285 6.39697 5.13721 7.06934 4.94385 7.86914C4.75928 8.66016 4.66699 9.56543 4.66699 10.585V12.2065C4.66699 13.1733 4.75049 14.0522 4.91748 14.8433C5.09326 15.6255 5.35693 16.2979 5.7085 16.8604C6.06885 17.4229 6.52588 17.8579 7.07959 18.1655C7.6333 18.4731 8.29688 18.627 9.07031 18.627C10.0107 18.627 10.771 18.4775 11.3511 18.1787C11.9399 17.8799 12.3838 17.4448 12.6826 16.8735C12.9902 16.2935 13.1924 15.5859 13.2891 14.751ZM22.4648 9.45117V21H19.2876V6.73535H22.3198L22.4648 9.45117ZM26.8286 6.64307L26.8022 9.59619C26.6089 9.56104 26.3979 9.53467 26.1694 9.51709C25.9497 9.49951 25.73 9.49072 25.5103 9.49072C24.9653 9.49072 24.4863 9.56982 24.0732 9.72803C23.6602 9.87744 23.313 10.0972 23.0317 10.3872C22.7593 10.6685 22.5483 11.0112 22.3989 11.4155C22.2495 11.8198 22.1616 12.2725 22.1353 12.7734L21.4102 12.8262C21.4102 11.9297 21.498 11.0991 21.6738 10.3345C21.8496 9.56982 22.1133 8.89746 22.4648 8.31738C22.8252 7.7373 23.2734 7.28467 23.8096 6.95947C24.3545 6.63428 24.9829 6.47168 25.6948 6.47168C25.8882 6.47168 26.0947 6.48926 26.3145 6.52441C26.543 6.55957 26.7144 6.59912 26.8286 6.64307ZM36.3867 18.1392V11.3364C36.3867 10.8267 36.2944 10.3872 36.1099 10.0181C35.9253 9.64893 35.644 9.36328 35.2661 9.16113C34.897 8.95898 34.4312 8.85791 33.8687 8.85791C33.3501 8.85791 32.9019 8.9458 32.5239 9.12158C32.146 9.29736 31.8516 9.53467 31.6406 9.8335C31.4297 10.1323 31.3242 10.4707 31.3242 10.8486H28.1602C28.1602 10.2861 28.2964 9.74121 28.5688 9.21387C28.8413 8.68652 29.2368 8.21631 29.7554 7.80322C30.2739 7.39014 30.8936 7.06494 31.6143 6.82764C32.335 6.59033 33.1436 6.47168 34.04 6.47168C35.1123 6.47168 36.0615 6.65186 36.8877 7.01221C37.7227 7.37256 38.3774 7.91748 38.8521 8.64697C39.3354 9.36768 39.5771 10.2729 39.5771 11.3628V17.7041C39.5771 18.3545 39.6211 18.939 39.709 19.4575C39.8057 19.9673 39.9419 20.4111 40.1177 20.7891V21H36.8613C36.7119 20.6572 36.5933 20.2222 36.5054 19.6948C36.4263 19.1587 36.3867 18.6401 36.3867 18.1392ZM36.8481 12.3252L36.8745 14.2896H34.5938C34.0049 14.2896 33.4863 14.3467 33.0381 14.4609C32.5898 14.5664 32.2163 14.7246 31.9175 14.9355C31.6187 15.1465 31.3945 15.4014 31.2451 15.7002C31.0957 15.999 31.021 16.3374 31.021 16.7153C31.021 17.0933 31.1089 17.4404 31.2847 17.7568C31.4604 18.0645 31.7153 18.3062 32.0493 18.4819C32.3921 18.6577 32.8052 18.7456 33.2886 18.7456C33.939 18.7456 34.5059 18.6138 34.9893 18.3501C35.4814 18.0776 35.8682 17.748 36.1494 17.3613C36.4307 16.9658 36.5801 16.5923 36.5977 16.2407L37.626 17.6514C37.5205 18.0117 37.3403 18.3984 37.0854 18.8115C36.8306 19.2246 36.4966 19.6201 36.0835 19.998C35.6792 20.3672 35.1914 20.6704 34.6201 20.9077C34.0576 21.145 33.4072 21.2637 32.6689 21.2637C31.7373 21.2637 30.9067 21.0791 30.1772 20.71C29.4478 20.332 28.8765 19.8267 28.4634 19.1938C28.0503 18.5522 27.8438 17.8271 27.8438 17.0186C27.8438 16.2627 27.9844 15.5947 28.2656 15.0146C28.5557 14.4258 28.9775 13.9336 29.5312 13.5381C30.0938 13.1426 30.7793 12.8438 31.5879 12.6416C32.3965 12.4307 33.3193 12.3252 34.3564 12.3252H36.8481ZM47.1973 21H44.02V5.36426C44.02 4.30078 44.2178 3.40869 44.6133 2.68799C45.0176 1.9585 45.5933 1.40918 46.3403 1.04004C47.0874 0.662109 47.9707 0.473145 48.9902 0.473145C49.3066 0.473145 49.6187 0.495117 49.9263 0.539062C50.2339 0.574219 50.5327 0.631348 50.8228 0.710449L50.7437 3.1626C50.5679 3.11865 50.3745 3.08789 50.1636 3.07031C49.9614 3.05273 49.7417 3.04395 49.5044 3.04395C49.021 3.04395 48.6035 3.13623 48.252 3.3208C47.9092 3.49658 47.6455 3.75586 47.4609 4.09863C47.2852 4.44141 47.1973 4.86328 47.1973 5.36426V21ZM50.1372 6.73535V9.05566H41.8315V6.73535H50.1372ZM58.9834 6.73535V9.05566H50.9414V6.73535H58.9834ZM53.2617 3.2417H56.439V17.0581C56.439 17.4976 56.5005 17.8359 56.6235 18.0732C56.7554 18.3018 56.9355 18.4556 57.1641 18.5347C57.3926 18.6138 57.6606 18.6533 57.9683 18.6533C58.188 18.6533 58.3989 18.6401 58.6011 18.6138C58.8032 18.5874 58.9658 18.561 59.0889 18.5347L59.1021 20.9604C58.8384 21.0396 58.5308 21.1099 58.1792 21.1714C57.8364 21.2329 57.4409 21.2637 56.9927 21.2637C56.2632 21.2637 55.6172 21.1362 55.0547 20.8813C54.4922 20.6177 54.0527 20.1914 53.7363 19.6025C53.4199 19.0137 53.2617 18.2314 53.2617 17.2559V3.2417ZM72.0352 17.8359L75.3311 6.73535H77.3613L76.8076 10.0576L73.4854 21H71.666L72.0352 17.8359ZM70.0972 6.73535L72.668 17.8887L72.8789 21H70.8486L66.9858 6.73535H70.0972ZM80.4463 17.7568L82.938 6.73535H86.0361L82.1865 21H80.1562L80.4463 17.7568ZM77.7041 6.73535L80.9604 17.7041L81.3691 21H79.5498L76.188 10.0444L75.6343 6.73535H77.7041ZM91.5996 6.73535V21H88.4092V6.73535H91.5996ZM88.1982 2.99121C88.1982 2.50781 88.3564 2.10791 88.6729 1.7915C88.998 1.46631 89.4463 1.30371 90.0176 1.30371C90.5801 1.30371 91.0239 1.46631 91.3491 1.7915C91.6743 2.10791 91.8369 2.50781 91.8369 2.99121C91.8369 3.46582 91.6743 3.86133 91.3491 4.17773C91.0239 4.49414 90.5801 4.65234 90.0176 4.65234C89.4463 4.65234 88.998 4.49414 88.6729 4.17773C88.3564 3.86133 88.1982 3.46582 88.1982 2.99121ZM101.619 6.73535V9.05566H93.5771V6.73535H101.619ZM95.8975 3.2417H99.0747V17.0581C99.0747 17.4976 99.1362 17.8359 99.2593 18.0732C99.3911 18.3018 99.5713 18.4556 99.7998 18.5347C100.028 18.6138 100.296 18.6533 100.604 18.6533C100.824 18.6533 101.035 18.6401 101.237 18.6138C101.439 18.5874 101.602 18.561 101.725 18.5347L101.738 20.9604C101.474 21.0396 101.167 21.1099 100.815 21.1714C100.472 21.2329 100.077 21.2637 99.6284 21.2637C98.8989 21.2637 98.2529 21.1362 97.6904 20.8813C97.1279 20.6177 96.6885 20.1914 96.3721 19.6025C96.0557 19.0137 95.8975 18.2314 95.8975 17.2559V3.2417ZM107.209 0.75V21H104.045V0.75H107.209ZM106.655 13.3403L105.627 13.3271C105.636 12.3428 105.772 11.4331 106.036 10.5981C106.308 9.76318 106.686 9.03809 107.169 8.42285C107.662 7.79883 108.25 7.31982 108.936 6.98584C109.622 6.64307 110.382 6.47168 111.217 6.47168C111.92 6.47168 112.553 6.56836 113.115 6.76172C113.687 6.95508 114.179 7.26709 114.592 7.69775C115.005 8.11963 115.317 8.67334 115.528 9.35889C115.748 10.0356 115.857 10.8618 115.857 11.8374V21H112.667V11.811C112.667 11.1255 112.566 10.5806 112.364 10.1763C112.17 9.77197 111.885 9.48193 111.507 9.30615C111.129 9.12158 110.667 9.0293 110.123 9.0293C109.551 9.0293 109.046 9.14355 108.606 9.37207C108.176 9.60059 107.815 9.9126 107.525 10.3081C107.235 10.7036 107.016 11.1606 106.866 11.6792C106.726 12.1978 106.655 12.7515 106.655 13.3403ZM129.423 1.80469V21H126.114V1.80469H129.423ZM137.254 10.2026V12.8262H128.58V10.2026H137.254ZM138.349 1.80469V4.44141H128.58V1.80469H138.349ZM143.517 9.45117V21H140.339V6.73535H143.372L143.517 9.45117ZM147.88 6.64307L147.854 9.59619C147.661 9.56104 147.45 9.53467 147.221 9.51709C147.001 9.49951 146.782 9.49072 146.562 9.49072C146.017 9.49072 145.538 9.56982 145.125 9.72803C144.712 9.87744 144.365 10.0972 144.083 10.3872C143.811 10.6685 143.6 11.0112 143.451 11.4155C143.301 11.8198 143.213 12.2725 143.187 12.7734L142.462 12.8262C142.462 11.9297 142.55 11.0991 142.726 10.3345C142.901 9.56982 143.165 8.89746 143.517 8.31738C143.877 7.7373 144.325 7.28467 144.861 6.95947C145.406 6.63428 146.035 6.47168 146.747 6.47168C146.94 6.47168 147.146 6.48926 147.366 6.52441C147.595 6.55957 147.766 6.59912 147.88 6.64307ZM157.438 18.1392V11.3364C157.438 10.8267 157.346 10.3872 157.162 10.0181C156.977 9.64893 156.696 9.36328 156.318 9.16113C155.949 8.95898 155.483 8.85791 154.92 8.85791C154.402 8.85791 153.954 8.9458 153.576 9.12158C153.198 9.29736 152.903 9.53467 152.692 9.8335C152.481 10.1323 152.376 10.4707 152.376 10.8486H149.212C149.212 10.2861 149.348 9.74121 149.621 9.21387C149.893 8.68652 150.289 8.21631 150.807 7.80322C151.326 7.39014 151.945 7.06494 152.666 6.82764C153.387 6.59033 154.195 6.47168 155.092 6.47168C156.164 6.47168 157.113 6.65186 157.939 7.01221C158.774 7.37256 159.429 7.91748 159.904 8.64697C160.387 9.36768 160.629 10.2729 160.629 11.3628V17.7041C160.629 18.3545 160.673 18.939 160.761 19.4575C160.857 19.9673 160.994 20.4111 161.169 20.7891V21H157.913C157.764 20.6572 157.645 20.2222 157.557 19.6948C157.478 19.1587 157.438 18.6401 157.438 18.1392ZM157.9 12.3252L157.926 14.2896H155.646C155.057 14.2896 154.538 14.3467 154.09 14.4609C153.642 14.5664 153.268 14.7246 152.969 14.9355C152.67 15.1465 152.446 15.4014 152.297 15.7002C152.147 15.999 152.073 16.3374 152.073 16.7153C152.073 17.0933 152.161 17.4404 152.336 17.7568C152.512 18.0645 152.767 18.3062 153.101 18.4819C153.444 18.6577 153.857 18.7456 154.34 18.7456C154.991 18.7456 155.558 18.6138 156.041 18.3501C156.533 18.0776 156.92 17.748 157.201 17.3613C157.482 16.9658 157.632 16.5923 157.649 16.2407L158.678 17.6514C158.572 18.0117 158.392 18.3984 158.137 18.8115C157.882 19.2246 157.548 19.6201 157.135 19.998C156.731 20.3672 156.243 20.6704 155.672 20.9077C155.109 21.145 154.459 21.2637 153.721 21.2637C152.789 21.2637 151.958 21.0791 151.229 20.71C150.5 20.332 149.928 19.8267 149.515 19.1938C149.102 18.5522 148.896 17.8271 148.896 17.0186C148.896 16.2627 149.036 15.5947 149.317 15.0146C149.607 14.4258 150.029 13.9336 150.583 13.5381C151.146 13.1426 151.831 12.8438 152.64 12.6416C153.448 12.4307 154.371 12.3252 155.408 12.3252H157.9ZM169.778 18.7324C170.297 18.7324 170.763 18.6313 171.176 18.4292C171.598 18.2183 171.936 17.9282 172.191 17.5591C172.455 17.1899 172.6 16.7637 172.626 16.2803H175.619C175.601 17.2031 175.329 18.0425 174.801 18.7983C174.274 19.5542 173.575 20.1562 172.705 20.6045C171.835 21.0439 170.873 21.2637 169.818 21.2637C168.728 21.2637 167.779 21.0791 166.97 20.71C166.162 20.332 165.489 19.8135 164.953 19.1543C164.417 18.4951 164.013 17.7349 163.74 16.8735C163.477 16.0122 163.345 15.0894 163.345 14.105V13.6436C163.345 12.6592 163.477 11.7363 163.74 10.875C164.013 10.0049 164.417 9.24023 164.953 8.58105C165.489 7.92188 166.162 7.40771 166.97 7.03857C167.779 6.66064 168.724 6.47168 169.805 6.47168C170.947 6.47168 171.949 6.7002 172.811 7.15723C173.672 7.60547 174.349 8.23389 174.841 9.04248C175.342 9.84229 175.601 10.7739 175.619 11.8374H172.626C172.6 11.3101 172.468 10.8354 172.23 10.4136C172.002 9.98291 171.677 9.64014 171.255 9.38525C170.842 9.13037 170.345 9.00293 169.765 9.00293C169.124 9.00293 168.592 9.13477 168.17 9.39844C167.748 9.65332 167.418 10.0049 167.181 10.4531C166.944 10.8926 166.772 11.3892 166.667 11.9429C166.57 12.4878 166.522 13.0547 166.522 13.6436V14.105C166.522 14.6938 166.57 15.2651 166.667 15.8188C166.764 16.3726 166.931 16.8691 167.168 17.3086C167.414 17.7393 167.748 18.0864 168.17 18.3501C168.592 18.605 169.128 18.7324 169.778 18.7324ZM184.597 6.73535V9.05566H176.555V6.73535H184.597ZM178.875 3.2417H182.052V17.0581C182.052 17.4976 182.114 17.8359 182.237 18.0732C182.369 18.3018 182.549 18.4556 182.777 18.5347C183.006 18.6138 183.274 18.6533 183.582 18.6533C183.801 18.6533 184.012 18.6401 184.214 18.6138C184.417 18.5874 184.579 18.561 184.702 18.5347L184.715 20.9604C184.452 21.0396 184.144 21.1099 183.792 21.1714C183.45 21.2329 183.054 21.2637 182.606 21.2637C181.876 21.2637 181.23 21.1362 180.668 20.8813C180.105 20.6177 179.666 20.1914 179.35 19.6025C179.033 19.0137 178.875 18.2314 178.875 17.2559V3.2417ZM195.091 18.1392V11.3364C195.091 10.8267 194.999 10.3872 194.814 10.0181C194.629 9.64893 194.348 9.36328 193.97 9.16113C193.601 8.95898 193.135 8.85791 192.573 8.85791C192.054 8.85791 191.606 8.9458 191.228 9.12158C190.85 9.29736 190.556 9.53467 190.345 9.8335C190.134 10.1323 190.028 10.4707 190.028 10.8486H186.864C186.864 10.2861 187 9.74121 187.273 9.21387C187.545 8.68652 187.941 8.21631 188.459 7.80322C188.978 7.39014 189.598 7.06494 190.318 6.82764C191.039 6.59033 191.848 6.47168 192.744 6.47168C193.816 6.47168 194.766 6.65186 195.592 7.01221C196.427 7.37256 197.082 7.91748 197.556 8.64697C198.04 9.36768 198.281 10.2729 198.281 11.3628V17.7041C198.281 18.3545 198.325 18.939 198.413 19.4575C198.51 19.9673 198.646 20.4111 198.822 20.7891V21H195.565C195.416 20.6572 195.297 20.2222 195.209 19.6948C195.13 19.1587 195.091 18.6401 195.091 18.1392ZM195.552 12.3252L195.579 14.2896H193.298C192.709 14.2896 192.19 14.3467 191.742 14.4609C191.294 14.5664 190.92 14.7246 190.622 14.9355C190.323 15.1465 190.099 15.4014 189.949 15.7002C189.8 15.999 189.725 16.3374 189.725 16.7153C189.725 17.0933 189.813 17.4404 189.989 17.7568C190.165 18.0645 190.419 18.3062 190.753 18.4819C191.096 18.6577 191.509 18.7456 191.993 18.7456C192.643 18.7456 193.21 18.6138 193.693 18.3501C194.186 18.0776 194.572 17.748 194.854 17.3613C195.135 16.9658 195.284 16.5923 195.302 16.2407L196.33 17.6514C196.225 18.0117 196.044 18.3984 195.79 18.8115C195.535 19.2246 195.201 19.6201 194.788 19.998C194.383 20.3672 193.896 20.6704 193.324 20.9077C192.762 21.145 192.111 21.2637 191.373 21.2637C190.441 21.2637 189.611 21.0791 188.881 20.71C188.152 20.332 187.581 19.8267 187.167 19.1938C186.754 18.5522 186.548 17.8271 186.548 17.0186C186.548 16.2627 186.688 15.5947 186.97 15.0146C187.26 14.4258 187.682 13.9336 188.235 13.5381C188.798 13.1426 189.483 12.8438 190.292 12.6416C191.101 12.4307 192.023 12.3252 193.061 12.3252H195.552ZM205.005 0.75V21H201.814V0.75H205.005ZM42.041 88.1035C42.041 86.9967 41.8783 86.0039 41.5527 85.125C41.2272 84.2135 40.625 83.3672 39.7461 82.5859C38.8672 81.8047 37.5977 81.0234 35.9375 80.2422C34.3099 79.4284 32.1615 78.582 29.4922 77.7031C26.3672 76.6615 23.3561 75.4896 20.459 74.1875C17.5618 72.8529 14.974 71.3066 12.6953 69.5488C10.4167 67.7585 8.61003 65.6751 7.27539 63.2988C5.94076 60.89 5.27344 58.0905 5.27344 54.9004C5.27344 51.8405 5.95703 49.0898 7.32422 46.6484C8.69141 44.1745 10.5957 42.0749 13.0371 40.3496C15.5111 38.5918 18.4082 37.2572 21.7285 36.3457C25.0488 35.4017 28.6784 34.9297 32.6172 34.9297C37.8255 34.9297 42.4154 35.8411 46.3867 37.6641C50.3906 39.4544 53.5156 42.0098 55.7617 45.3301C58.0404 48.6178 59.1797 52.5078 59.1797 57H42.1387C42.1387 55.2096 41.7643 53.6309 41.0156 52.2637C40.2995 50.8965 39.209 49.8223 37.7441 49.041C36.2793 48.2598 34.4401 47.8691 32.2266 47.8691C30.0781 47.8691 28.2715 48.1947 26.8066 48.8457C25.3418 49.4967 24.235 50.3757 23.4863 51.4824C22.7376 52.5566 22.3633 53.7448 22.3633 55.0469C22.3633 56.1211 22.6562 57.0977 23.2422 57.9766C23.8607 58.8229 24.7233 59.6204 25.8301 60.3691C26.9694 61.1178 28.3366 61.834 29.9316 62.5176C31.5592 63.2012 33.3822 63.8685 35.4004 64.5195C39.1764 65.724 42.5293 67.0749 45.459 68.5723C48.4212 70.0371 50.9115 71.7135 52.9297 73.6016C54.9805 75.457 56.5267 77.5729 57.5684 79.9492C58.6426 82.3255 59.1797 85.0111 59.1797 88.0059C59.1797 91.196 58.5612 94.028 57.3242 96.502C56.0872 98.9759 54.3132 101.076 52.002 102.801C49.6908 104.493 46.9238 105.779 43.7012 106.658C40.4785 107.537 36.8815 107.977 32.9102 107.977C29.2643 107.977 25.6673 107.521 22.1191 106.609C18.6035 105.665 15.4134 104.233 12.5488 102.312C9.68424 100.359 7.38932 97.8691 5.66406 94.8418C3.97135 91.7819 3.125 88.1523 3.125 83.9531H20.3125C20.3125 86.0365 20.5892 87.7943 21.1426 89.2266C21.696 90.6589 22.5098 91.8145 23.584 92.6934C24.6582 93.5397 25.9766 94.1582 27.5391 94.5488C29.1016 94.9069 30.8919 95.0859 32.9102 95.0859C35.0911 95.0859 36.849 94.7767 38.1836 94.1582C39.5182 93.5072 40.4948 92.6608 41.1133 91.6191C41.7318 90.5449 42.041 89.373 42.041 88.1035ZM116.943 93.8164V107H79.0527V93.8164H116.943ZM85.1562 35.9062V107H68.0176V35.9062H85.1562ZM112.061 64.1289V76.873H79.0527V64.1289H112.061ZM117.09 35.9062V49.1387H79.0527V35.9062H117.09ZM159.375 35.9062V107H142.236V35.9062H159.375ZM180.762 35.9062V49.1387H121.338V35.9062H180.762ZM226.611 35.9062H243.75V82.3418C243.75 87.8757 242.594 92.5632 240.283 96.4043C237.972 100.213 234.733 103.094 230.566 105.047C226.4 107 221.501 107.977 215.869 107.977C210.303 107.977 205.404 107 201.172 105.047C196.973 103.094 193.685 100.213 191.309 96.4043C188.965 92.5632 187.793 87.8757 187.793 82.3418V35.9062H204.98V82.3418C204.98 85.2715 205.404 87.6641 206.25 89.5195C207.096 91.3424 208.333 92.6771 209.961 93.5234C211.589 94.3698 213.558 94.793 215.869 94.793C218.213 94.793 220.182 94.3698 221.777 93.5234C223.372 92.6771 224.577 91.3424 225.391 89.5195C226.204 87.6641 226.611 85.2715 226.611 82.3418V35.9062ZM282.91 82.8789H265.234V69.6465H282.91C285.319 69.6465 287.272 69.2396 288.77 68.4258C290.267 67.612 291.357 66.4889 292.041 65.0566C292.757 63.5918 293.115 61.9479 293.115 60.125C293.115 58.1719 292.757 56.3652 292.041 54.7051C291.357 53.0449 290.267 51.7103 288.77 50.7012C287.272 49.6595 285.319 49.1387 282.91 49.1387H271.68V107H254.541V35.9062H282.91C288.607 35.9062 293.506 36.9479 297.607 39.0312C301.742 41.1146 304.915 43.9792 307.129 47.625C309.342 51.2383 310.449 55.3724 310.449 60.0273C310.449 64.6172 309.342 68.6211 307.129 72.0391C304.915 75.457 301.742 78.1263 297.607 80.0469C293.506 81.9349 288.607 82.8789 282.91 82.8789Z" fill="black"/>
</svg>
