<svg width="26" height="24" fill="none" xmlns="http://www.w3.org/2000/svg"><g clip-path="url(#a)" fill="#fff"><path fill-rule="evenodd" clip-rule="evenodd" d="M13 .5C9.914.501 6.93 1.51 4.58 3.347 2.23 5.183.666 7.726.172 10.522c-.495 2.796.11 5.662 1.708 8.086 1.596 2.424 4.08 4.248 7.008 5.145.645.11.889-.259.889-.573 0-.314-.013-1.225-.018-2.22-3.616.72-4.38-1.41-4.38-1.41-.59-1.383-1.442-1.746-1.442-1.746-1.18-.739.088-.725.088-.725 1.306.085 1.993 1.23 1.993 1.23 1.158 1.824 3.042 1.297 3.782.989.117-.773.455-1.298.827-1.597-2.889-.3-5.924-1.324-5.924-5.896-.018-1.185.461-2.332 1.339-3.202-.134-.3-.58-1.514.127-3.162 0 0 1.091-.32 3.575 1.223a13.406 13.406 0 0 1 6.51 0c2.482-1.543 3.571-1.223 3.571-1.223.709 1.644.263 2.857.13 3.162.88.87 1.36 2.019 1.34 3.206 0 4.582-3.041 5.592-5.934 5.886.465.372.88 1.097.88 2.211 0 1.597-.015 2.88-.015 3.274 0 .318.235.69.893.573 2.928-.897 5.412-2.721 7.01-5.146 1.596-2.424 2.2-5.29 1.706-8.087-.495-2.796-2.058-5.34-4.408-7.175C19.077 1.509 16.09.5 13.005.5H13Z"/><path d="M4.923 17.632c-.028.06-.131.077-.215.036-.084-.042-.146-.119-.116-.18.03-.061.131-.077.215-.036.084.042.148.12.116.18ZM5.45 18.171a.233.233 0 0 1-.144.017.218.218 0 0 1-.122-.072c-.084-.083-.102-.197-.037-.249.065-.051.18-.027.265.055.084.083.103.198.039.25ZM5.963 18.857c-.08.051-.215 0-.29-.103a.197.197 0 0 1-.05-.065.184.184 0 0 1 .05-.22c.079-.049.215 0 .29.101.075.101.077.236 0 .287ZM6.658 19.52c-.07.074-.215.054-.333-.045-.119-.098-.147-.233-.076-.304.071-.071.215-.051.338.046.123.096.147.233.071.304ZM7.633 19.908c-.032.093-.178.134-.325.095-.146-.04-.243-.15-.215-.245.028-.095.177-.138.325-.095.149.044.243.148.215.245ZM8.697 19.975c0 .097-.12.18-.276.182-.155.002-.282-.077-.282-.174 0-.097.12-.18.276-.182.155-.002.282.076.282.174ZM9.687 19.823c.02.097-.088.198-.243.221-.155.024-.29-.033-.31-.128-.02-.095.092-.198.243-.223.15-.026.29.033.31.13Z"/></g><defs><clipPath id="a"><path fill="#fff" d="M0 0h26v24H0z"/></clipPath></defs></svg>