<svg width="25" height="24" fill="none" xmlns="http://www.w3.org/2000/svg"><path d="M12.5 2.16c3.34 0 3.735.015 5.049.071 1.22.052 1.88.249 2.32.413.58.215 1 .478 1.435.895.44.422.708.82.932 1.378.171.422.376 1.06.43 2.227.059 1.265.073 1.645.073 4.847 0 3.206-.014 3.586-.073 4.846-.054 1.172-.259 1.805-.43 2.227a3.7 3.7 0 0 1-.932 1.378c-.44.422-.855.68-1.436.895-.44.165-1.103.361-2.32.413-1.317.056-1.713.07-5.048.07-3.34 0-3.735-.014-5.049-.07-1.22-.052-1.88-.248-2.32-.413a3.885 3.885 0 0 1-1.435-.895 3.68 3.68 0 0 1-.932-1.378c-.171-.422-.376-1.06-.43-2.227-.059-1.265-.073-1.645-.073-4.846 0-3.207.014-3.586.073-4.847.054-1.172.259-1.805.43-2.227a3.7 3.7 0 0 1 .932-1.378c.44-.422.855-.68 1.436-.895.44-.164 1.103-.361 2.32-.413 1.313-.056 1.708-.07 5.048-.07Zm0-2.16C9.106 0 8.682.014 7.349.07 6.02.127 5.107.333 4.316.628A6.132 6.132 0 0 0 2.1 2.016 5.862 5.862 0 0 0 .654 4.139C.347 4.903.132 5.775.074 7.05.013 8.334 0 8.742 0 12s.015 3.666.073 4.945c.059 1.275.274 2.152.581 2.911A5.84 5.84 0 0 0 2.1 21.984a6.142 6.142 0 0 0 2.212 1.383c.795.296 1.704.502 3.032.558 1.333.056 1.758.07 5.151.07 3.394 0 3.819-.014 5.152-.07 1.328-.056 2.24-.262 3.032-.558a6.142 6.142 0 0 0 2.212-1.383 5.847 5.847 0 0 0 1.44-2.123c.308-.764.523-1.636.581-2.911.059-1.28.073-1.688.073-4.945 0-3.258-.014-3.666-.073-4.946-.058-1.275-.273-2.151-.58-2.91A5.601 5.601 0 0 0 22.9 2.015 6.142 6.142 0 0 0 20.69.633C19.893.338 18.983.13 17.655.075 16.318.015 15.894 0 12.5 0Z" fill="#fff"/><path d="M12.5 5.836c-3.545 0-6.42 2.76-6.42 6.164 0 3.403 2.875 6.164 6.42 6.164s6.42-2.76 6.42-6.164c0-3.403-2.875-6.164-6.42-6.164Zm0 10.162c-2.3 0-4.165-1.79-4.165-3.998S10.2 8.002 12.5 8.002s4.165 1.79 4.165 3.998-1.865 3.998-4.165 3.998ZM20.674 5.592c0 .797-.674 1.44-1.5 1.44-.83 0-1.498-.648-1.498-1.44 0-.797.674-1.439 1.499-1.439.825 0 1.499.647 1.499 1.44Z" fill="#fff"/></svg>