<svg width="26" height="24" fill="none" xmlns="http://www.w3.org/2000/svg"><g clip-path="url(#a)"><path d="M8.18 21.75c9.808 0 15.175-7.503 15.175-14.008 0-.211-.005-.427-.015-.638A10.411 10.411 0 0 0 26 4.555c-.972.4-2.005.66-3.062.774 1.113-.616 1.947-1.584 2.346-2.723A11.28 11.28 0 0 1 21.898 3.8a5.492 5.492 0 0 0-3.027-1.487 5.73 5.73 0 0 0-3.382.518c-1.035.511-1.859 1.323-2.344 2.31a4.583 4.583 0 0 0-.34 3.148 16.15 16.15 0 0 1-6.088-1.492A14.992 14.992 0 0 1 1.812 3.15a4.603 4.603 0 0 0-.582 3.586c.306 1.22 1.105 2.287 2.233 2.984a5.685 5.685 0 0 1-2.417-.614v.06c0 1.138.425 2.24 1.206 3.12.78.881 1.866 1.485 3.074 1.709a5.732 5.732 0 0 1-2.407.084 4.966 4.966 0 0 0 1.897 2.447 5.638 5.638 0 0 0 3.084.975c-1.89 1.37-4.223 2.113-6.625 2.11-.426-.001-.852-.025-1.275-.073 2.44 1.446 5.28 2.213 8.18 2.212Z" fill="#fff"/></g><defs><clipPath id="a"><path fill="#fff" d="M0 0h26v24H0z"/></clipPath></defs></svg>