<?xml version="1.0" encoding="UTF-8"?>
<svg xmlns="http://www.w3.org/2000/svg" xmlns:xlink="http://www.w3.org/1999/xlink" version="1.1" x="0px" y="0px" viewBox="0 0 69.1 34.1" style="enable-background:new 0 0 69.1 34.1;" xml:space="preserve">
<style type="text/css">
	.st0{fill:#F083B2;}
</style>
<g id="n_-_02">
</g>
<g id="n_-_01">
</g>
<g id="a_00000183212731243759425740000016738108656414161074_">
</g>
<g id="m">
</g>
<g id="h">
</g>
<g id="c">
</g>
<g id="a">
</g>
<g id="B">
</g>
<g id="Schweif_unten_-_Klein">
</g>
<g id="Schweif_unten_-_Gross">
</g>
<g id="Schweif_-_Oben">
	<g>
		<path class="st0" d="M63.9,15.1c-1.3,0-2.3,0.2-3.1,0.6v7.4h1.8v-6.7c0.3-0.1,0.6-0.2,1.2-0.2c1.1,0,1.4,0.7,1.4,1.3v5.6H67v-5.6    C67,16.2,66.3,15.1,63.9,15.1"></path>
		<path class="st0" d="M55.8,15.1c-1.3,0-2.3,0.2-3.1,0.6v7.4h1.8v-6.7c0.3-0.1,0.6-0.2,1.2-0.2c1.1,0,1.4,0.7,1.4,1.3v5.6h1.8v-5.6    C58.9,16.2,58.1,15.1,55.8,15.1"></path>
		<path class="st0" d="M47.8,15.1c-1.2,0-2.2,0.3-2.7,0.6l0.4,1c0.5-0.2,1.2-0.5,2-0.5c0.9,0,1.6,0.3,1.6,1.3V18    c-2.4,0.2-4.4,0.8-4.4,2.9c0,1.5,1.1,2.4,3.2,2.4c1.2,0,2.2-0.2,2.8-0.6v-4.9C50.7,15.8,49.5,15.1,47.8,15.1 M49.1,22    c-0.3,0.1-0.7,0.2-1.1,0.2c-1,0-1.6-0.4-1.6-1.5c0-1.4,1-1.8,2.7-2V22z"></path>
		<path class="st0" d="M43.1,17.5c0-1.2-0.8-2.4-2.7-2.4c-1.2,0-2,0.4-2.5,0.9c-0.5-0.5-1.2-0.9-2.4-0.9c-1.3,0-2.2,0.2-2.9,0.6v7.4    h1.8v-6.7c0.3-0.1,0.6-0.2,1.2-0.2c1,0,1.5,0.5,1.5,1.3v5.6h1.8v-6.3c0.4-0.4,0.8-0.5,1.3-0.5c0.9,0,1.3,0.6,1.3,1.3v5.6h1.8V17.5    z"></path>
		<path class="st0" d="M28.8,17.6v5.5h1.8v-5.6c0-1.2-0.7-2.4-2.7-2.4c-0.6,0-1.2,0.1-1.7,0.4v-3.9h-1.8v11.4h1.8v-6.5    c0.4-0.2,0.8-0.3,1.3-0.3C28.4,16.3,28.8,16.9,28.8,17.6"></path>
		<path class="st0" d="M21.4,22c-1.1,0-1.7-1.1-1.7-2.8c0-1.7,0.5-2.8,1.7-2.8c0.5,0,0.8,0.2,1,0.3l0.4-1c-0.3-0.2-0.9-0.5-1.8-0.5    c-1.7,0-3.1,1.4-3.1,4c0,2.6,1.3,4.1,3.1,4.1c0.9,0,1.5-0.2,1.8-0.5l-0.4-1.1C22.2,21.8,21.9,22,21.4,22"></path>
		<path class="st0" d="M13.4,15.1c-1.2,0-2.2,0.3-2.7,0.6l0.4,1c0.5-0.2,1.2-0.5,2-0.5c0.9,0,1.6,0.3,1.6,1.3V18    c-2.4,0.2-4.4,0.8-4.4,2.9c0,1.5,1.1,2.4,3.2,2.4c1.2,0,2.2-0.2,2.8-0.6v-4.9C16.3,15.8,15,15.1,13.4,15.1 M14.6,22    c-0.3,0.1-0.7,0.2-1.1,0.2c-1,0-1.6-0.4-1.6-1.5c0-1.4,1-1.8,2.7-2V22z"></path>
		<path class="st0" d="M6.6,17.8L6.6,17.8c0.8-0.2,1.9-0.9,1.9-2.3c0-1.5-1.2-2.6-3.6-2.6c-1.2,0-2.2,0.2-2.9,0.6v9.2    c0.7,0.4,1.7,0.6,3,0.6c2.3,0,3.8-0.9,3.8-2.9C8.8,18.9,7.5,18,6.6,17.8 M3.8,14.2C4.1,14,4.4,14,4.9,14c1.2,0,1.8,0.6,1.8,1.7    c0,1.2-0.6,1.8-2.4,1.8l-0.6,0V14.2z M4.9,22.1c-0.5,0-0.8-0.1-1.2-0.2v-3.6l0.6,0c1.9,0,2.6,0.6,2.6,2C7,21.6,6.1,22.1,4.9,22.1"></path>
		<path class="st0" d="M33.7,24.4c-1.2,2.9-1,5.6,1.5,5.6c2,0,5.2-1.8,7.3-4.1c0.2-0.2,0.3-0.4,0.5-0.6h-0.4    c-2.4,2.7-5.5,4.3-7.4,4.3c-0.8,0-1.5-0.5-1.5-1.2c0-0.8,0.9-2.3,2.5-4.1H33.7z"></path>
		<path class="st0" d="M44.8,28.3c-6.6,6.4-16,5.6-16,0c0-1.3,0.3-2.5,0.9-3.9H27c0,0.4-0.1,0.8-0.1,1.2c0,9.2,11.5,9.7,18.1,3    c1-1,1.9-2.1,2.6-3.3h-0.3C46.6,26.4,45.8,27.4,44.8,28.3"></path>
		<path class="st0" d="M22.7,4.8C31.4-0.4,41.1,2,45.2,5.3c-4.8,2.9-8.8,5.7-11.7,8.5l0,0c0,0-0.2,0.2-0.4,0.4c0,0,0,0,0,0h0    c0,0-0.1,0.1-0.1,0.1c0.7-0.2,1.6-0.3,2.7-0.3c0.9,0,1.6,0.1,2.2,0.4c2.6-2.6,5.8-5.5,8.9-8c0.7,0.7,1.4,1.7,1.9,2.8l0.2-0.1    c-0.6-1.3-1.1-2-1.9-2.9c4.5-3.6,5.9-4.5,7.4-4.5c0.5,0,0.9,0.3,0.9,0.7c0,1.7-3,5.7-8.3,9.2c-1.3,0.8-2.7,1.7-4.3,2.6l0.4,0.1    c4.2-2.3,8.2-4.8,10.1-6.6c3-2.7,3.4-6.4,1.3-6.4c-1.4,0-4.7,1.4-8.9,3.7C37.5-0.7,26,0.3,20.2,4.4c-2.6,1.9-4.4,5.2-4.1,8.6    c0,0.4,0.1,0.8,0.2,1.2h0.2c0-0.1,0-0.2,0-0.3C16.5,10.7,18.6,7.3,22.7,4.8"></path>
	</g>
	
		<image style="overflow:visible;" width="1985" height="1423" transform="matrix(1 0 0 1 -7703.0669 -7542.2222)">
	</image>
</g>
</svg>
