<svg width="169" height="79" fill="none" xmlns="http://www.w3.org/2000/svg"><g clip-path="url(#clip0_102_33)" fill="#fff"><path d="M16.258 35.843v14.22H26.39V38.67s.291-10.68-10.5-10.68l-11.305.006s11.673.367 11.673 7.847zM39.46 12.827H29.33v37.237h10.13V12.827zM78.233 28.02v14.82c-.121.794-.829 3.968-4.38 3.968-5.273 0-4.8-5.141-4.8-5.141V28.02h-10.13v11.018S58.104 50.04 69.15 50.04c6.083 0 8.67-3.475 9.083-4.095v4.119h10.131V28.02H78.233zm33.369.024c-6.129 0-8.708 3.53-9.091 4.107v-4.13H92.38v22.043h10.131v-14.76c.094-.677.738-4.026 4.388-4.026 5.273 0 4.8 5.142 4.8 5.142v13.644h10.131V39.047c-.003 0 .818-11.003-10.228-11.003z"/><path d="M10.131 42.69c0 7.374 6.37 7.374 6.37 7.374h-9.69S0 50.064 0 42.69c0-7.684 6.895-7.404 6.895-7.404h9.685c.003 0-6.449.03-6.449 7.404zm130.531-6.847v14.22h10.131V38.67s.292-10.68-10.5-10.68l-11.304.006s11.673.367 11.673 7.847z"/><path d="M134.571 42.69c0 7.374 6.369 7.374 6.369 7.374h-9.686s-6.812 0-6.812-7.374c0-7.684 6.895-7.407 6.895-7.407h9.685c0 .003-6.451.033-6.451 7.407zM57.354 27.978h-3.245V12.13s-2.216 15.606-10.853 15.85h-2.108v.896h2.83v21.189h10.13v-21.19h3.246v-.896zm88.119-9.552v-4.302h1.569c.894 0 1.255.566 1.26 1.276.006.53-.239.96-.718 1.107l.867 1.92h-.834l-.74-1.752h-.65v1.751h-.754zm.751-2.419h.556c.589 0 .768-.201.768-.607 0-.407-.223-.608-.638-.608h-.688v1.215h.002z"/><path d="M142.897 16.326c0-2.392 1.772-4.326 3.958-4.326 2.188 0 3.958 1.938 3.96 4.326 0 2.389-1.772 4.326-3.96 4.326-2.186.003-3.958-1.934-3.958-4.326zm.58 0c.003 2.04 1.514 3.692 3.38 3.695 1.866-.003 3.378-1.655 3.38-3.695-.002-2.04-1.514-3.688-3.38-3.694-1.868.006-3.377 1.655-3.38 3.694zm-66.1 45.264h1.998c0 .45-.055.926-.113 1.293h.022c.303-.854.939-1.441 1.932-1.441 1.407 0 2.434 1.122 2.434 3.014 0 2.1-1.14 3.626-3.127 3.626-.413 0-.804-.06-1.15-.208l-.023 2.124h.928V71h-2.78v-1.002h.647l.044-7.41h-.815v-.999h.003zm2.042 5.15c.256.171.647.268 1.118.268 1.15 0 1.797-1.099 1.797-2.344 0-1.185-.468-2.076-1.407-2.076-1.015 0-1.508.903-1.508 2.38v1.772zm10.341.905a5.172 5.172 0 01-2.043.44c-1.92-.012-3.06-1.306-3.06-3.295 0-1.88.971-3.345 2.849-3.345 1.742 0 2.623 1.393 2.623 3.357v.184h-4.154c.011 1.233.837 2.028 1.987 2.028a3.84 3.84 0 001.867-.488l-.07 1.12zm-.947-3.589v-.123c0-.523-.314-1.49-1.374-1.49s-1.417.843-1.464 1.613h2.838zm2.188 2.88h.705l.022-4.345h-.884V61.59h2.067c0 .476 0 1.123-.066 1.757l.022.024c.223-1.197.859-1.904 1.698-1.904.303 0 .592.06.705.111l-.135 1.21a1.464 1.464 0 00-.57-.096c-1.106 0-1.574 1.146-1.585 2.27l-.022 1.978h.848v1.001h-2.802v-1.004H91zm5.147 0h.705l.022-4.345h-.884V61.59h.884l.022-.866c.044-1.66 1.084-2.32 2.447-2.32.492 0 .894.097 1.128.148l-.044 1.074c-.157-.072-.457-.148-.939-.148-.96 0-1.318.635-1.34 1.393l-.022.72h1.362v1.001h-1.362l-.022 4.345h.894v1.001h-2.848v-1.001h-.003zm9.006.709a5.176 5.176 0 01-2.043.44c-1.912-.012-3.052-1.306-3.052-3.295 0-1.88.972-3.345 2.841-3.345 1.742 0 2.623 1.393 2.623 3.357v.184h-4.148c.011 1.233.834 2.028 1.981 2.028.727 0 1.363-.208 1.866-.488l-.068 1.12zm-.95-3.589v-.123c0-.523-.314-1.49-1.373-1.49-1.054 0-1.412.843-1.456 1.613h2.829zm2.144 2.88h.705l.044-7.386h-1.016v-1.002h2.268l-.047 5.8 2.054-1.733v-.024h-.826V61.59h2.725v1.002h-.581l-2.078 1.88 2.246 2.468h.658v1.001h-2.791V66.94h.68l-2.089-2.22v2.22h.704v1.001h-2.659v-1.004h.003zm6.848-5.346h.883l.023-1.43 1.26-.096-.044 1.525h1.665v1.002h-1.665c-.011 1.014-.022 2.013-.022 2.967 0 1.158.234 1.453.815 1.453.336 0 .693-.124.971-.244l-.044 1.002a2.81 2.81 0 01-1.285.316c-1.228 0-1.709-.524-1.709-1.953 0-.818.022-2.44.033-3.54h-.884v-1.003h.003zm7.872 1.001h-.581V61.59h2.59v1.002h-.625l1.151 3.43c.077.256.124.511.19.77h.022c.055-.256.09-.523.168-.77l1.128-3.43h-.738V61.59h2.59v1.002h-.602l-1.977 5.346h-1.318l-1.998-5.346zm11.502 5.054a5.175 5.175 0 01-2.042.44c-1.922-.012-3.061-1.306-3.061-3.295 0-1.88.972-3.345 2.849-3.345 1.742 0 2.625 1.393 2.625 3.357v.184h-4.153c.011 1.233.837 2.028 1.987 2.028.727 0 1.363-.208 1.866-.488l-.071 1.12zm-.95-3.589v-.123c0-.523-.314-1.49-1.373-1.49-1.06 0-1.418.843-1.464 1.613h2.837zm2.191 2.88h.705l.022-4.345h-.884V61.59h2.067c0 .476 0 1.123-.066 1.757l.022.024c.223-1.197.859-1.904 1.698-1.904.3 0 .592.06.705.111l-.135 1.21a1.466 1.466 0 00-.57-.096c-1.106 0-1.574 1.146-1.585 2.27l-.022 1.978h.848v1.001h-2.802v-1.004h-.003zm4.968-5.346h1.998c0 .45-.055.926-.112 1.293h.022c.302-.854.938-1.441 1.932-1.441 1.406 0 2.436 1.122 2.436 3.014 0 2.1-1.14 3.626-3.127 3.626-.413 0-.804-.06-1.151-.208l-.022 2.124h.928V71h-2.78v-1.002h.647l.044-7.41h-.815v-.999zm2.045 5.15c.256.171.647.268 1.118.268 1.15 0 1.797-1.099 1.797-2.344 0-1.185-.468-2.076-1.407-2.076-1.015 0-1.508.903-1.508 2.38v1.772zm5.596-4.723c.313-.16 1.059-.575 2.301-.575 1.72 0 2.268.926 2.268 2.428 0 1.026-.033 2.04-.044 3.062h.781v1.002h-1.844c0-.403.033-.89.102-1.317h-.022c-.245.719-.716 1.465-1.932 1.465-1.396 0-1.853-1.014-1.853-1.82 0-1.673 1.553-1.893 2.502-1.941l1.195-.072v-.475c0-.783-.256-1.33-1.285-1.33a2.84 2.84 0 00-1.049.22v.926h-1.118v-1.574h-.002zm1.929 4.994c.972 0 1.497-.807 1.497-1.613v-.256c-1.296.012-2.422.073-2.422 1.014 0 .476.333.855.925.855zm7.864-4.384a2.477 2.477 0 00-.738-.111c-1.151 0-1.742.939-1.742 2.148 0 1.098.492 2.272 2.031 2.272.559 0 1.194-.184 1.486-.368l-.066 1.186a4.09 4.09 0 01-1.585.33c-2.323 0-3.116-1.696-3.116-3.282 0-1.94 1.096-3.357 3.127-3.357.883 0 1.406.208 1.651.33v1.794h-1.048v-.942zm2.056 4.309h.704l.044-7.386h-1.015v-1.002h2.268l-.047 5.8 2.053-1.733v-.024h-.826V61.59h2.725v1.002h-.581l-2.078 1.88 2.246 2.468h.658v1.001h-2.791V66.94h.68l-2.089-2.22v2.22h.705v1.001h-2.659v-1.004h.003zm6.845-5.346h.883l.022-1.43 1.264-.096-.045 1.525h1.666v1.002h-1.666c-.011 1.014-.022 2.013-.022 2.967 0 1.158.234 1.453.815 1.453.336 0 .694-.124.972-.244l-.044 1.002a2.817 2.817 0 01-1.286.316c-1.227 0-1.709-.524-1.709-1.953 0-.818.022-2.44.033-3.54h-.883v-1.003z"/></g><defs><clipPath id="clip0_102_33"><path fill="#fff" transform="translate(0 12)" d="M0 0h169v59H0z"/></clipPath></defs></svg>