<svg xmlns="http://www.w3.org/2000/svg" width="187.1" height="90.7"><style>.st5{fill:#c8102e}.st6{fill:#fff}</style><g id="Logos"><g id="Logo-GalloSuisse-neg-CMYK"><g id="Wortmarke_2_"><g id="Flagge_2_"><path id="Fläche_2_" class="st5" d="M169.6 63.3h12.3v12.3h-12.3z"/><path id="Kreuz_2_" class="st6" d="M176.9 68.3V66h-2.3v2.3h-2.4v2.4h2.4V73h2.3v-2.3h2.3v-2.4z"/></g><path id="Suisse_2_" class="st5" d="M119.6 75.6h2.8V63.4h-2.8v12.2zm-8.6-5.4c0 2.4-.8 3.2-2.2 3.2-1.4 0-2.1-.8-2.1-3.2v-6.9h-2.8V70c0 4.1 1.7 5.9 4.9 5.9s4.8-1.8 4.8-5.9v-6.6H111v6.8zm-14.6-1.5l-1.6-.6c-1.1-.4-1.9-.7-1.9-1.5 0-.7.6-1.1 1.6-1.1s1.7.3 2.5 1l1.4-1.7c-1.1-1.1-2.5-1.6-3.9-1.6-2.6 0-4.4 1.6-4.4 3.7 0 1.8 1.2 2.8 2.5 3.3l1.6.7c1.1.4 1.8.7 1.8 1.5 0 .7-.6 1.2-1.7 1.2-1 0-2.1-.5-3-1.3l-1.6 1.9c1.3 1.2 2.9 1.8 4.5 1.8 2.9 0 4.6-1.8 4.6-3.8 0-1.9-.9-2.9-2.4-3.5zm61.3 4.6v-2.8h4.2v-2.3h-4.2v-2.5h4.9v-2.3H155v12.3h7.9v-2.3h-5.2zm-10.3-4.6l-1.6-.6c-1.1-.4-1.9-.7-1.9-1.5 0-.7.6-1.1 1.6-1.1s1.7.3 2.5 1l1.4-1.7c-1.1-1.1-2.5-1.6-3.9-1.6-2.6 0-4.4 1.6-4.4 3.7 0 1.8 1.2 2.8 2.5 3.3l1.6.7c1.1.4 1.8.7 1.8 1.5 0 .7-.6 1.2-1.7 1.2-1 0-2.1-.5-3-1.3l-1.6 1.9c1.3 1.2 2.9 1.8 4.5 1.8 2.9 0 4.6-1.8 4.6-3.8 0-1.9-.9-2.9-2.4-3.5zm-13.2 0l-1.6-.6c-1.1-.4-1.9-.7-1.9-1.5 0-.7.6-1.1 1.6-1.1s1.7.3 2.5 1l1.4-1.7c-1.1-1.1-2.5-1.6-3.9-1.6-2.6 0-4.4 1.6-4.4 3.7 0 1.8 1.2 2.8 2.5 3.3l1.6.7c1.1.4 1.8.7 1.8 1.5 0 .7-.6 1.2-1.7 1.2-1 0-2.1-.5-3-1.3l-1.6 1.9c1.3 1.2 2.9 1.8 4.5 1.8 2.9 0 4.6-1.8 4.6-3.8 0-1.9-.9-2.9-2.4-3.5z"/><path id="Gallo_2_" class="st6" d="M175.7 32.2c-5.3 0-10.2 4-10.2 10.9S170.4 54 175.7 54s10.2-4 10.2-10.9-4.9-10.9-10.2-10.9zm0 16.9c-2.6 0-3.8-2.3-3.8-5.9 0-3.6 1.3-5.9 3.8-5.9 2.6 0 3.8 2.3 3.8 5.9 0 3.6-1.2 5.9-3.8 5.9zm-73.6-5.9h4.5v4.7c-.7.5-1.8.8-2.9.8-5.2 0-7.7-3.3-7.7-8.9 0-5.5 3-8.8 7.2-8.8 2.3 0 3.8.9 5.2 2.2l3.3-4c-1.8-1.9-4.7-3.6-8.6-3.6-7.3 0-13.3 5.3-13.3 14.4 0 9.2 5.9 14 13.4 14 3.8 0 7.1-1.5 9-3.3V38.1h-10v5.1zm24.7-11c-3.3 0-6.3 1.1-8.9 2.7l2.2 4.1c2-1.1 3.8-1.9 5.5-1.9 2.3 0 3.2 1.2 3.3 3-8.2.9-11.7 3.2-11.7 7.6 0 3.5 2.4 6.3 6.2 6.3 2.3 0 4.3-1.1 6.1-2.6h.2l.4 2.1h5V41.7c0-6.4-3-9.5-8.3-9.5zm2.1 15.3c-1.1 1.1-2 1.8-3.4 1.8-1.5 0-2.4-.7-2.4-2 0-1.6 1.4-2.8 5.8-3.4v3.6zm19.5 1.6c-.5 0-1.1-.4-1.1-1.7V24.2h-6.2v23c0 4.2 1.4 7 5.7 7 1.4 0 2.4-.2 3.1-.5l-.7-4.6h-.8zm12.8 0c-.5 0-1.1-.4-1.1-1.7V24.2h-6.2v23c0 4.2 1.4 7 5.7 7 1.4 0 2.4-.2 3.1-.5L162 49c-.4.1-.5.1-.8.1z"/></g><g id="Bildmarke_2_"><path id="Pinsel_2_" class="st6" d="M5.4 66.6c-1.3-2.8-1.9-5.8-1.9-8.7.1-3 .4-6.1 1.1-9 .3-1.5.8-2.9 1.2-4.4l.9-2.4c1.2.9 2.4 1.9 3.7 2.8l5.3 4 .3.2h.1c5.2.1 10.4.1 15.6.1 2.6 0 5.3-.1 7.9-.8 2.6-.7 5.1-1.9 7.2-3.7 1-.9 2-1.8 2.8-2.9.9-1.1 1.4-2.3 2-3.5 1.1-2.4 1.8-4.8 2.6-7.1.8-2.4 1.6-4.7 2.6-6.9.3-.5.5-1.1.9-1.6.3-.5.6-1 1-1.5.7-1 1.7-1.8 2.7-2.5-1.1.5-2.3 1.2-3.1 2.1-.5.4-.9.9-1.3 1.4-.4.5-.7 1-1.1 1.6-1.4 2.2-2.4 4.5-3.5 6.8-1 2.3-2 4.6-3.1 6.7-.6 1-1.2 2.1-1.9 2.9-.7.9-1.6 1.6-2.5 2.3-1.8 1.4-3.9 2.3-6.2 2.8-1.1.3-2.3.4-3.4.5-1.2.1-2.3 0-3.5 0-4.8 0-9.5-.1-14.3.1l-5-3.7-5.4-3.9-.2-.1-.2-.2c-.5-.2-1.1-.1-1.6.2-.2.2-.4.4-.6.7-.8 1.6-1.3 3.1-1.7 4.7-.5 1.6-.8 3.2-1.1 4.7-.5 3.2-.7 6.4-.5 9.7.2 3.3 1.3 6.5 3 9.2 1.7 2.8 3.9 5.1 6.6 6.8-2.3-2.1-4.1-4.7-5.4-7.4zm2.3-27c0 .2-.1.5-.2.7l.2-.7zm62.9-14.3c.9 0 1.6-.7 1.6-1.6 0-.9-.7-1.6-1.6-1.6s-1.6.8-1.6 1.7c0 .8.8 1.5 1.6 1.5zm3.9 31.6l-.1-16.8H74c-.3 2.8-.5 5.7-.7 8.5-.2 2.8-.4 5.7-.6 8.5v.3c-.3 3.9-1.3 7.7-3 11.1-1.6 3.5-4 6.7-6.8 9.3-2.8 2.6-6.1 4.7-9.6 6.1C49.8 85.3 46 86 42.2 86c-3.8-.1-7.5-.8-11-2.2-3.5-1.4-6.7-3.6-9.5-6.1-5-4.8-8.4-11.4-9.2-18.5l4.1-.2c2.1-.1 4.3-.3 6.4-.4 2.1-.1 4.3-.3 6.4-.5 2.1-.2 4.3-.4 6.4-.6V57L10 56.9h-.2v.2c0 4.2.8 8.5 2.4 12.4 1.6 3.9 4 7.5 7 10.5 6 6 14.4 9.6 22.9 9.5 4.2 0 8.5-.9 12.4-2.5 3.9-1.6 7.5-4 10.5-7s5.4-6.6 7-10.5c1.6-3.9 2.4-8.1 2.4-12.4l.1-.2zM12.7 31.3l.7-1.4.8-1.4.8-1.4c.2-.5.5-.9.8-1.4l1.7-2.7-.1.1 2.2-3.3-.1.2 1.2-1.5 1.1-1.6-.1.2 2.4-2.8-.2.2c.8-.8 1.6-1.7 2.4-2.5l2.4-2.1c.4-.3.8-.6 1.3-.9l1.2-1 2.6-1.5 2.7-1.2 2.9-.8c.4-.1.9-.1 1.3-.2l1.8-.3h-.3 1.6c.6 0 1.1 0 1.7-.1h-.3l3.4.3-.2-.1c1.1.2 2.2.5 3.3.7l-.1-.1c.5.2 1.1.3 1.6.5s1.1.4 1.6.5h-.1l1.5.6.3-.3-1.3-.9-2.9-1.6-3.1-1.2-3.3-.7-3.4-.3-3.4.3-3.3.7-3.1 1.2-3 1.6-2.8 2-2.6 2.4-2.4 2.7-2.2 3-2 3.3-2.5 3.5-1.3 2.9c-.5 1-.8 2-1.2 3l-.6 1.5-.4 1.6c-.3 1-.6 2-.9 3.1l.4.1c.5-1 1.1-1.9 1.5-2.9z"/><path id="Kamm_2_" class="st5" d="M80.2 26.9l-4.4-3.4c1.4-.2 2.7-1.1 3.3-2.6.9-2.2-.1-4.7-2.3-5.6-.4-.2-.9-.3-1.3-.3-.2-2-1.4-3.8-3.4-4.7-2.9-1.2-6.2.1-7.4 3-.5 1.2-.6 2.5-.2 3.7.8-.2 1.6-.4 2.5-.4 4.7 0 8.5 3.8 8.5 8.5 0 2.2-.8 4.1-2.2 5.6-.6 1.1-1.1 2.2-1.1 2.9 0 1.7 1.4 3 3 3s3-1.4 3-3c0-1.3-1.8-4-2.5-5.1l4.4-1.1c.1 0 .2-.1.3-.3 0 0-.1-.2-.2-.2z"/></g></g></g></svg>