<svg width="54" height="79" fill="none" xmlns="http://www.w3.org/2000/svg"><path fill-rule="evenodd" clip-rule="evenodd" d="M12.812 17.08l6.524 2.453-3.846-5.63-.204-.286.229-.28 4.474-5.263-6.916 1.768-.18-.294-3.87-5.678-.326 6.737v.358l-7.184 1.831 6.547 2.445.335.135-.024.343-.54 6.752 4.459-5.255.212-.255.31.12z" fill="#85754E"/><path d="M12.812 17.08l6.524 2.453-3.846-5.63-.204-.286.229-.28 4.474-5.263-6.916 1.768-.18-.294-3.87-5.678-.326 6.737v.358l-7.184 1.831 6.547 2.445.335.135-.024.343-.54 6.752 4.459-5.255.212-.255.31.12z" fill="#85754E"/><path fill-rule="evenodd" clip-rule="evenodd" d="M40.645 16.961l.212.255 4.458 5.255-.539-6.752-.024-.343.334-.135 6.548-2.445-7.184-1.839-.009-.358-.326-6.737-3.878 5.678-.18.294-6.915-1.768 4.474 5.264.228.279-.204.286-3.845 5.63 6.523-2.452.327-.112z" fill="#85754E"/><path d="M40.645 16.961l.212.255 4.458 5.255-.539-6.752-.024-.343.334-.135 6.548-2.445-7.184-1.839-.009-.358-.326-6.737-3.878 5.678-.18.294-6.915-1.768 4.474 5.264.228.279-.204.286-3.845 5.63 6.523-2.452.327-.112z" fill="#85754E"/><path d="M51.928 41.033c.703 2.126.947 4.387 1.029 6.736.106 3.226-.163 7.016-1.176 10.066-3.535 10.694-13.79 17.287-25.065 17.287-14.68 0-26.698-11.387-26.698-25.704s11.904-25.816 26.584-25.816c12.598.008 22.077 7.549 25.326 17.43z" fill="#fff"/><path d="M26.675 61.482c-6.931-.008-12.557-5.471-12.54-12.168.016-6.697 5.666-12.135 12.59-12.12 4.376.009 8.597 2.358 10.89 6.02l3.993-3.28c-3.265-4.841-8.858-7.804-14.875-7.82-4.752-.008-9.234 1.776-12.606 5.025-3.372 3.249-5.242 7.573-5.258 12.167-.008 4.595 1.837 8.919 5.2 12.184 3.364 3.264 7.83 5.064 12.582 5.072 6.932.016 12.973-3.703 15.945-9.763l-4.498-2.38c-2.041 4.307-6.491 7.079-11.422 7.063z" fill="#005A93"/><path d="M19.148 41.495l-.008 4.196s6.188-.008 8.066 0c-.065.064-.139.127-.22.2-1.886 1.687-8.075 6.823-8.075 6.823l-.016 4.229h15.602l-.008-4.3c-6.27 0-6.27 0-8.222-.008 1.592-1.441 8.165-6.944 8.165-6.944v-4.188l-15.284-.008z" fill="#005A93"/><path d="M26.953 45.93c.139-.12.188-.151.302-.239h-.098l-.702.653s.335-.287.498-.414zm-.433 6.466l-.294.239h.09l.694-.653s-.326.287-.49.414z" fill="#005A93"/><path d="M51.12 48.263v-.12l.008-1.672h-12.5l.008 4.738h7.104c-.131 2.827-.466 4.101-1.397 6.116C41.242 64.1 34.465 68.298 26.66 68.29c-10.81-.024-19.586-8.544-19.562-18.992.025-10.447 8.834-18.936 19.644-18.912 3.47.008 6.874.9 9.838 2.58 2.409 1.362 4.678 3.448 6.385 5.853l4.066-3.344c-2.066-2.787-4.769-5.2-7.79-6.904-3.78-2.142-8.09-3.273-12.5-3.28-6.629-.017-12.875 2.476-17.594 7.015-4.71 4.538-7.315 10.566-7.331 16.984-.017 6.41 2.563 12.454 7.25 17.001 4.694 4.563 10.932 7.08 17.57 7.087 9.936.024 18.582-5.343 22.566-13.99 1.045-2.119 1.666-4.866 1.854-8.179h.008c.016-.207.024-.525.04-.867v-.263c.025-.598.025-1.195.017-1.816z" fill="#005A93"/></svg>