<svg width="150" height="79" fill="none" xmlns="http://www.w3.org/2000/svg"><path d="M0 39.089C0 29.255 8.008 21.28 17.886 21.28c9.877 0 17.885 7.974 17.885 17.808s-8.008 17.807-17.885 17.807C8.008 56.892 0 48.922 0 39.089z" fill="#95C11F"/><path d="M8.784 29.913v18.765h4.436v-7.143c0-1.38.348-2.366.894-2.961.547-.612 1.466-.916 2.691-.916 1.072 0 1.92.279 2.34.84.419.54.728 1.371.728 2.489v7.695h4.436v-8.378c0-.84-.148-1.6-.339-2.279a3.84 3.84 0 00-.945-1.755c-.44-.489-1.067-.864-1.847-1.126-.759-.278-1.746-.418-2.945-.418-.843 0-1.708.148-2.593.515a5.139 5.139 0 00-2.182 1.666h-.238v-6.994H8.784z" fill="#fff"/><path fill-rule="evenodd" clip-rule="evenodd" d="M28.364 39.114h4.483c.085-.734.382-1.185.886-1.502.504-.316 1.2-.434 2.085-.434.398 0 .767.042 1.106.097.356.033.665.13.915.27.275.122.483.307.631.552.17.228.25.544.25.945.022.384-.114.684-.41.895-.297.19-.696.341-1.2.447-.504.105-1.085.181-1.737.236-.653.05-1.314.122-1.992.211-.673.089-1.347.21-2.02.367a6.242 6.242 0 00-1.768.654c-.504.295-.924.7-1.262 1.207-.318.489-.475 1.117-.475 1.885 0 .7.135 1.304.41 1.81a3.75 3.75 0 001.2 1.257 5.373 5.373 0 001.767.734 9.631 9.631 0 002.178.237c1.008 0 2-.123 2.97-.367.97-.245 1.81-.671 2.526-1.283.021.228.05.477.093.705.064.21.136.282.22.65h4.547c-.212-.368-.386-.722-.47-1.279a11.903 11.903 0 01-.153-1.776v-7.058c0-.823-.195-1.477-.636-1.966-.44-.506-.995-.899-1.69-1.181a8.389 8.389 0 00-2.301-.549 20.016 20.016 0 00-2.492-.156c-.906 0-1.809.08-2.716.236a8.385 8.385 0 00-2.398.735c-.716.35-1.305.742-1.767 1.316-.453.578-.716 1.367-.78 2.105zm10.356 2.894v1.388c0 .21-.03.49-.093.84-.042.35-.178.7-.41 1.05-.234.333-.59.62-1.073.865-.483.244-1.17.367-2.05.367-.361 0-.704-.026-1.043-.08a3.072 3.072 0 01-.886-.262 1.676 1.676 0 01-.601-.548c-.149-.228-.22-.507-.22-.84 0-.35.071-.637.22-.865.148-.227.339-.409.567-.548.255-.156.538-.279.852-.367.339-.089.674-.156 1.009-.211.36-.05.716-.097 1.072-.13.36-.035.694-.081 1.012-.132.335-.05.64-.114.916-.185.3-.089.36-.203.728-.342zm13.674-9.15v-2.945H47.59v2.945h4.805zm-4.805 2.206v13.614h4.805V35.064H47.59z" fill="#fff"/><path d="M56.83 35.064v13.614h4.437V42.53c0-.612.047-1.181.195-1.704.148-.523.377-.979.712-1.363.36-.4.813-.717 1.381-.945.568-.228 1.263-.342 2.08-.342.276 0 .522.017.818.051.297.017.725.042.725.08v-3.46a3.92 3.92 0 00-.945-.13 6.3 6.3 0 00-1.627.211 6.188 6.188 0 00-1.475.603c-.462.245-.868.57-1.228.937-.356.35-.636.801-.848 1.173h-.157v-2.574H56.83v-.004z" fill="#fff"/><path fill-rule="evenodd" clip-rule="evenodd" d="M70.136 25.867v22.815h1.847V45.37h.131c.47 1.106 1.233 2.105 2.284 2.726a7.148 7.148 0 003.636.962c1.267 0 2.36-.207 3.28-.654.945-.469 1.728-1.093 2.347-1.882a8.263 8.263 0 001.386-2.784c.3-1.068.449-2.186.449-3.358 0-1.173-.148-2.283-.45-3.329-.3-1.067-.762-1.995-1.385-2.784a6.63 6.63 0 00-2.347-1.92c-.924-.468-2.017-.705-3.28-.705-.602 0-1.2.076-1.8.224a5.753 5.753 0 00-1.675.705c-.517.3-.974.763-1.385 1.215a4.177 4.177 0 00-.903 1.662h.076v-9.58h-2.211zM83.47 40.375c0 .852-.106 1.709-.322 2.561a6.682 6.682 0 01-.966 2.245 5.28 5.28 0 01-1.674 1.632c-.686.405-1.512.608-2.478.608-1.072 0-1.983-.203-2.733-.608a5.714 5.714 0 01-1.801-1.633 7.052 7.052 0 01-.996-2.244 11.465 11.465 0 01-.288-2.56c0-.853.097-1.697.288-2.532a7.1 7.1 0 01.996-2.274 5.435 5.435 0 011.8-1.603c.75-.426 1.662-.641 2.734-.641.966 0 1.792.215 2.478.641.687.405 1.246.94 1.674 1.603.45.663.771 1.418.966 2.274.216.835.322 1.675.322 2.531z" fill="#D9E6B1"/><path d="M88.614 35.064v13.614h1.848V41.43c0-.717.22-1.371.513-1.966.296-.612.741-1.135 1.267-1.573.546-.44 1.245-.768 1.983-.996.737-.245 1.41-.35 2.517-.317v-1.645c-1.48-.05-2.784.262-3.86.856a5.65 5.65 0 00-2.374 2.587h-.046v-3.312h-1.848z" fill="#D9E6B1"/><path fill-rule="evenodd" clip-rule="evenodd" d="M111.292 40.953h-10.55c.084-.734.254-1.215.504-1.793a5.306 5.306 0 011.072-1.552c.44-.456.979-.814 1.61-1.076.631-.278 1.36-.422 2.178-.422.801 0 1.517.14 2.148.418a4.71 4.71 0 011.61 1.076c.445.438.78.953 1.013 1.527.259.582.394 1.088.415 1.822zm-10.55 1.473h12.538c.042-1.106-.064-1.92-.314-2.831-.254-.924-.674-1.764-1.263-2.464-.567-.717-1.313-1.303-2.241-1.742-.924-.435-2.043-.663-3.348-.663-1.283 0-2.402.207-3.347.625-.928.4-1.686.94-2.275 1.624a6.671 6.671 0 00-1.327 2.278 8.502 8.502 0 00-.41 2.62c0 .962.135 1.877.41 2.75a6.672 6.672 0 001.327 2.279c.589.645 1.347 1.16 2.275 1.548.949.367 2.064.548 3.347.548 2.064 0 3.653-.38 4.767-1.215 1.136-.84 1.916-2.05 2.339-3.522h-1.991c-.314 1.105-.886 1.848-1.704 2.476-.822.629-1.957.924-3.411.924-.949 0-1.758-.177-2.432-.51a5.31 5.31 0 01-1.674-1.262c-.44-.506-.766-1.025-.978-1.654-.191-.645-.288-1.442-.288-1.81zm16.614-3.312h1.991c.043-1.105.462-1.822 1.263-2.312.801-.506 1.831-.725 3.093-.725.589 0 1.136.063 1.644.147.526.072.979.22 1.356.43.399.211.704.502.916.87.233.35.347.805.347 1.366 0 .367-.063.667-.191.89a1.298 1.298 0 01-.474.553 2.31 2.31 0 01-.788.262c-.318.05-.682.097-1.106.13-1.072.106-2.136.22-3.191.342-1.03.106-1.966.295-2.813.578-.822.279-1.483.692-1.988 1.232-.504.523-.758 1.257-.758 2.202 0 .68.135 1.274.411 1.78.292.49.686.9 1.169 1.233a5.246 5.246 0 001.738.679 9.484 9.484 0 002.148.236c.801 0 1.483-.06 2.055-.181a6.046 6.046 0 001.547-.524c.461-.227.872-.594 1.233-.928.377-.35.745-.531 1.106-1.265h.063c0 .367.021.759.064 1.058.063.279.178.57.347.777.17.21.398.396.695.519.314.105.725.169 1.233.169.276 0 .542-.005.712-.022.191-.017.309-.038.678-.071V47.15c-.369.071-.424.105-.657.105-.779 0-1.191-.333-1.191-.995v-7.19c0-.906-.203-1.64-.563-2.201a3.794 3.794 0 00-1.403-1.338 5.711 5.711 0 00-1.932-.628 12.786 12.786 0 00-2.152-.186c-.945 0-1.814.089-2.589.262a6.532 6.532 0 00-2.055.814c-.568.367-1.022.768-1.361 1.346-.334.578-.533 1.236-.597 1.974zm10.432 2.206v2.076c0 .662-.068 1.257-.385 1.78-.293.523-.661.97-1.187 1.338a5.463 5.463 0 01-1.78.84 7.986 7.986 0 01-2.169.286c-.462 0-.911-.063-1.352-.186a3.926 3.926 0 01-1.165-.523 3.273 3.273 0 01-.818-.84 2.233 2.233 0 01-.284-1.126c0-.662.233-1.168.695-1.518.483-.367 1.093-.646 1.831-.84a15.71 15.71 0 012.432-.418c.907-.105 1.78-.219 2.623-.341.275-.034.589-.06.945-.148.36-.089.601-.384.729-.384h-.115v.004z" fill="#D9E6B1"/><path d="M135.551 25.867v22.815h1.847v-6.32l3.373-2.704 6.653 9.024h2.538l-7.559-10.425 7.08-6.133h-2.703l-9.382 7.994v-14.25h-1.847z" fill="#D9E6B1"/></svg>