<svg width="282" height="79" fill="none" xmlns="http://www.w3.org/2000/svg"><path fill-rule="evenodd" clip-rule="evenodd" d="M30.304 42.274V27.527l-7.527-3.687v15.362c.768.46 1.536.921 2.458 1.229a33.64 33.64 0 005.07 1.843zM12.178 30.753c2.15 2.304 4.455 4.301 6.912 5.99V21.998L15.25 20 .196 27.527v12.596l10.6-10.753 1.382 1.383zm18.126 15.515C28 45.654 25.85 44.732 23.7 43.81c-.307-.154-.461-.307-.768-.46v6.605h7.527v-3.687" fill="#DA291C"/><path fill-rule="evenodd" clip-rule="evenodd" d="M19.09 41.353a42.852 42.852 0 01-8.295-6.452L.349 45.654v4.608H19.09v-8.91z" fill="#DA291C"/><path fill-rule="evenodd" clip-rule="evenodd" d="M60.873 39.97H49.66v10.138h-4.301v-22.58h4.3v8.448h11.215v-8.449h4.3v22.428h-4.3V39.97zm16.283 6.605c2.458 0 4.148-1.843 4.148-4.3 0-2.305-1.69-4.302-4.148-4.302-2.457 0-4.147 1.997-4.147 4.301 0 2.304 1.69 4.301 4.147 4.301zm0-12.442c4.763 0 8.296 3.686 8.296 8.141s-3.687 8.142-8.296 8.142c-4.608 0-8.295-3.533-8.295-8.142 0-4.455 3.533-8.141 8.295-8.141zm23.196 15.975c-.614.154-1.843.308-2.611.308-2.458 0-4.301-.768-5.377-2.305-.768-1.075-1.229-2.457-1.229-4.608v-5.53h-4.3V34.44h4.3v-4.301h4.148v4.3h5.069v3.534h-5.07v5.99c0 .922.155 1.537.462 1.998.46.46 1.075.768 2.15.768.615 0 1.383-.154 1.69-.154l.768 3.533zm12.904-9.83c-.154-1.383-1.383-2.766-3.073-2.766-1.689 0-3.225 1.383-3.379 2.765h6.452zm3.84 7.219c-1.536 1.843-3.994 2.765-6.452 2.765-4.608 0-8.141-3.226-8.141-8.142 0-4.3 2.918-8.141 7.527-8.141 4.301 0 7.373 3.687 7.373 7.988 0 .46 0 .768-.153 1.229h-10.753c.307 2.15 1.997 3.687 4.147 3.687a5.204 5.204 0 003.994-1.844l2.458 2.458zm3.687 2.611h4.147V27.22h-4.147v22.888zm8.602 0h4.148V27.22h-4.148v22.888zm18.127-9.83c-.154-1.383-1.383-2.766-3.073-2.766-1.689 0-3.226 1.383-3.379 2.765h6.452zm3.994 7.219c-1.537 1.843-3.994 2.765-6.452 2.765-4.609 0-8.142-3.226-8.142-8.142 0-4.3 2.919-8.141 7.527-8.141 4.301 0 7.374 3.687 7.374 7.988 0 .46 0 .768-.154 1.229h-10.753c.307 2.15 1.997 3.687 4.148 3.687a5.206 5.206 0 003.994-1.844l2.458 2.458zm13.21-9.37c-.307-.154-.921-.154-1.536-.154-1.843 0-3.226 1.382-3.84 2.304v9.831h-4.148V34.44h3.994v1.536c.922-1.229 2.612-1.843 4.455-1.843.614 0 .922 0 1.383.153l-.308 3.84zm3.073 11.981h4.147V34.44h-4.147v15.668zm2.15-23.81c1.536 0 2.765 1.23 2.765 2.612 0 1.536-1.229 2.611-2.765 2.611s-2.765-1.229-2.765-2.611c0-1.383 1.229-2.612 2.765-2.612zm15.822 13.98c-.153-1.383-1.382-2.766-3.072-2.766-1.69 0-3.226 1.383-3.379 2.765h6.451zm3.994 7.219c-1.536 1.843-3.994 2.765-6.451 2.765-4.609 0-8.142-3.226-8.142-8.142 0-4.3 2.919-8.141 7.527-8.141 4.301 0 7.374 3.687 7.374 7.988 0 .46 0 .768-.154 1.229h-10.753c.307 2.15 1.997 3.687 4.148 3.687a5.207 5.207 0 003.994-1.844l2.457 2.458zm5.223-3.38c1.229 1.383 3.226 2.458 5.223 2.458 1.997 0 3.226-1.229 3.226-2.765 0-2.918-4.148-3.226-7.22-5.069-1.843-1.075-3.226-2.611-3.226-5.07 0-3.993 3.687-6.297 7.374-6.297 2.304 0 4.454.614 6.451 2.15l-2.304 3.226c-.921-.768-2.458-1.536-3.84-1.536-1.69 0-3.533.768-3.533 2.458 0 3.687 10.446 2.458 10.446 10.138 0 3.994-3.534 6.76-7.681 6.76-3.072 0-5.837-1.23-8.142-3.38l3.226-3.072zm30.877-9.677v15.515h-3.994v-1.23c-1.229 1.076-2.765 1.537-4.148 1.537-1.997 0-3.994-.922-5.223-2.458-.922-1.229-1.536-2.765-1.536-5.223V34.44h4.148v8.449c0 1.382.307 2.15.768 2.611.614.768 1.536.922 2.304.922 1.69 0 3.072-1.23 3.687-1.997V34.44h3.994zm4.454 15.668h4.148V34.44h-4.148v15.668zm2.151-23.81c1.536 0 2.765 1.23 2.765 2.612 0 1.536-1.229 2.611-2.765 2.611s-2.765-1.075-2.765-2.611c0-1.536 1.229-2.612 2.765-2.612zm6.913 19.048c1.075.922 2.765 1.537 4.301 1.537 1.075 0 1.997-.615 1.997-1.383 0-2.304-7.527-1.536-7.527-6.452 0-2.918 2.918-4.915 5.991-4.915 1.997 0 4.301.768 5.222 1.536l-1.997 3.072c-.768-.614-1.843-1.075-2.918-1.075-1.229 0-2.151.46-2.151 1.229 0 1.997 7.527 1.228 7.527 6.605 0 3.072-2.918 4.762-6.144 4.762-2.151 0-4.455-.768-6.298-2.15l1.997-2.766zm14.439 0c1.076.922 2.765 1.537 4.301 1.537 1.076 0 1.997-.615 1.997-1.383 0-2.304-7.527-1.536-7.527-6.452 0-2.918 2.919-4.915 5.991-4.915 1.997 0 4.301.768 5.223 1.536L261.8 38.74c-.768-.614-1.843-1.075-2.919-1.075-1.228 0-2.15.46-2.15 1.229 0 1.997 7.527 1.228 7.527 6.605 0 3.072-2.919 4.762-6.145 4.762-2.15 0-4.454-.768-6.298-2.15l1.997-2.766zm23.349-5.069c-.153-1.382-1.382-2.765-3.072-2.765-1.69 0-3.226 1.383-3.379 2.765h6.451zm3.841 7.22c-1.536 1.843-3.994 2.765-6.452 2.765-4.608 0-8.141-3.226-8.141-8.142 0-4.3 2.918-8.141 7.527-8.141 4.301 0 7.373 3.687 7.373 7.988 0 .46 0 .768-.154 1.229h-10.753c.154 2.15 1.997 3.687 4.148 3.687 1.69 0 3.226-.922 3.994-1.844l2.458 2.458z" fill="#fff"/></svg>