<svg width="120" height="79" fill="none" xmlns="http://www.w3.org/2000/svg"><g clip-path="url(#clip0_8:21)"><path fill-rule="evenodd" clip-rule="evenodd" d="M82.213 43.624V25.84h4.906v17.783h-4.906z" fill="#004A8F"/><path d="M81.865 21.567a2.79 2.79 0 012.782-2.801 2.79 2.79 0 012.781 2.802 2.79 2.79 0 01-2.781 2.801 2.8 2.8 0 01-2.782-2.802zM18.97 15.004c-.457 0-.885.039-1.338.073a5.71 5.71 0 01.267 1.689c0 3.01-2.413 5.45-5.398 5.45a5.383 5.383 0 01-4.978-3.318A19.122 19.122 0 000 33.363v1.698c.461 9.842 8.302 17.732 18.064 18.196h1.812c6.684-.315 12.45-4.115 15.579-9.633h-6.44c-1.845 0-4.965.179-6.705-.994-2.053-1.386-2.946-2.99-2.946-6.9V21.09l5.084-.004v4.755h3.492v2.324h-3.492v6.806c0 2.653.076 4.9 1.405 5.736 1.13.712 1.871.695 3.192.7l7.49.004a19.208 19.208 0 001.417-7.272c-.004-10.567-8.492-19.135-18.982-19.135zm-3.933 28.62l-5.089.004V25.841h5.089v17.783z" fill="#004A8F"/><path d="M12.497 15.004c0 2.21-1.778 4.013-3.98 4.013-2.192 0-3.975-1.803-3.975-4.013C4.542 12.795 6.33 11 8.518 11c2.201 0 3.979 1.795 3.979 4.004z" fill="#ED1846"/><path d="M120 43.624c-1.846 0-4.978.179-6.718-.994-2.054-1.386-2.947-2.99-2.947-6.9V21.09l4.97-.004v4.755h3.603v2.328h-3.603v6.721c0 2.657.026 5.241 1.346 5.932 1.186.618 2.028.584 3.349.584v2.218" fill="#004A8F"/><path fill-rule="evenodd" clip-rule="evenodd" d="M101.949 38.468v-3.74c0-1.467.004-3.254-.093-4.137a2.612 2.612 0 00-.906-1.706c-.36-.298-1.152-.729-2.189-.725-.935.005-1.697.265-2.248.726-.525.443-.813.955-.885 1.607-.16 1.506-.127 2.76-.127 4.235v8.896h-4.919v-5.156s.009-2.269.009-3.74c0-1.476 0-2.235.042-3.766.11-3.936 3.844-5.51 8.132-5.51 4.06 0 8.001 1.574 8.065 5.553.025 1.6.051 2.252.051 3.727 0 1.476-.013 3.74-.013 3.74l.025 5.156h-4.944v-5.16m-28.009-3.74c0-1.467 0-3.254-.093-4.137a2.59 2.59 0 00-.905-1.71c-.36-.298-1.152-.729-2.19-.725-.935.005-1.697.265-2.247.725-.525.444-.813.956-.885 1.608-.16 1.505-.127 2.76-.127 4.235 0 1.475-.03 2.729.131 4.234.072.657.356 1.165.88 1.608.547.465 1.309.725 2.249.725 1.037.004 1.829-.426 2.189-.725a2.571 2.571 0 00.906-1.706c.097-.883.093-2.66.093-4.132zm-11.345 0c0-1.476-.013-2.235.03-3.766.11-3.936 3.844-5.51 8.132-5.51 4.06 0 8.001 1.574 8.065 5.553.025 1.6.05 2.252.05 3.727 0 1.476-.02 2.124-.05 3.723-.064 3.979-4.005 5.548-8.065 5.553-4.288 0-8.027-1.574-8.132-5.51-.043-1.535-.03-2.295-.03-3.77zm-14.563 0l-.004 6.627 3.124-.026c1.037.005 1.981-.35 2.341-.648a2.57 2.57 0 00.906-1.71c.098-.887.08-2.772.08-4.243 0-1.467 0-3.254-.092-4.137a2.627 2.627 0 00-.906-1.71c-.36-.298-1.152-.729-2.19-.725-.935.005-1.697.265-2.247.725-.525.444-.813.956-.885 1.608-.16 1.505-.127 2.76-.127 4.239zm3.277 8.947h-3.281v4.06h-4.902v-4.06h-2.57v-2.324h2.57l-.005-6.623c0-1.476-.02-2.235.022-3.766.11-3.936 3.844-5.51 8.132-5.51 4.06 0 8.001 1.574 8.065 5.553.025 1.6.05 2.252.05 3.727 0 1.476-.012 1.74-.038 3.344-.067 3.974-3.983 5.599-8.043 5.599z" fill="#004A8F"/><path d="M3.628 60.823h-2.49v-1.015h6.118v1.015H4.771v7.04H3.628v-7.04zm3.835 1.155h1.008v.913h.021c.288-.61.906-1.049 1.524-1.049.322 0 .483.034.711.081v.968a1.572 1.572 0 00-.597-.102c-.96 0-1.591.925-1.591 2.4v2.679H7.464v-5.89zm9.627 5.886h-1.04v-.934h-.021c-.322.67-1.101 1.074-1.914 1.074-1.511 0-2.189-.947-2.189-2.529v-3.497h1.076v3.05c0 1.373.296 2.042 1.236 2.102 1.228 0 1.778-.994 1.778-2.422v-2.725h1.075v5.88zm1.397-1.156a2.857 2.857 0 001.342.413c.491 0 1.101-.209 1.101-.844 0-1.075-2.532-.98-2.532-2.631 0-1.224.906-1.813 2.062-1.813.504 0 .919.103 1.342.23l-.093.947c-.241-.149-.88-.298-1.135-.298-.55 0-1.033.23-1.033.716 0 1.199 2.532.853 2.532 2.734 0 1.258-.995 1.834-2.04 1.834-.55 0-1.114-.06-1.605-.324l.06-.964zm7.997-3.855H24.94v3.22c0 .682.41 1.049.906 1.049a1.3 1.3 0 00.732-.21v.926c-.241.068-.571.162-.918.162-1.114 0-1.8-.529-1.8-1.71v-3.442h-1.316v-.878h1.317v-1.36l1.075-.346v1.71h1.545v.879h.004zm5.834 4.767c-.41.15-.88.38-1.846.38-2.074 0-3.027-1.27-3.027-3.186 0-1.744 1.088-2.976 2.74-2.976 1.947 0 2.577 1.433 2.577 3.326h-4.17a1.92 1.92 0 001.927 1.962c.71 0 1.536-.371 1.799-.589v1.084zm-.699-3.266c0-.9-.529-1.638-1.456-1.638-1.054 0-1.49.879-1.57 1.638h3.026zm6.727 2.678h-.021c-.288.44-.953.968-1.994.968-1.765 0-2.51-1.582-2.51-3.186 0-1.582.825-2.976 2.519-2.976 1.02 0 1.604.405 1.934.946h.021v-3.578h1.076v8.657h-1.033v-.831h.008zm-1.765.094c1.215 0 1.719-1.211 1.719-2.192 0-1.096-.563-2.218-1.732-2.218-1.168 0-1.625 1.109-1.604 2.184-.021.92.457 2.226 1.617 2.226zm7.916-7.318h1.148v8.056h-1.148v-8.056zm4.78 1.015h-2.485v-1.015h6.117v1.015h-2.485v7.04h-1.147v-7.04zm8.56 2.03H56.46v-.879h1.376v-.541c0-1.433.368-2.367 1.96-2.367.275 0 .504.034.724.068l-.047.879a1.668 1.668 0 00-.516-.069c-.927 0-1.042.601-1.042 1.399v.635h1.546v.879h-1.546v5.01H57.84v-5.014h-.004zm6.346-1.015c1.778 0 2.967 1.292 2.967 3.083 0 1.684-1.215 3.083-2.967 3.083-1.766 0-2.98-1.398-2.98-3.083 0-1.791 1.193-3.083 2.98-3.083zm0 5.288c1.261 0 1.82-1.156 1.82-2.205 0-1.122-.677-2.205-1.82-2.205-1.156 0-1.833 1.083-1.833 2.205 0 1.05.563 2.205 1.833 2.205zm4.411-5.148H69.6v.913h.022c.287-.61.905-1.049 1.523-1.049.322 0 .483.034.712.081v.968a1.572 1.572 0 00-.597-.102c-.961 0-1.592.925-1.592 2.4v2.679h-1.075v-5.89zm7.679-2.17h2.168c1.66 0 2.806.541 2.806 2.03 0 1.108-.643 1.663-1.65 1.914v.022c1.087.094 1.854.806 1.854 1.94 0 1.732-1.423 2.145-3.048 2.145h-2.13v-8.051zm1.143 3.437h.631c1.113 0 2.053-.102 2.053-1.292 0-.96-.813-1.199-1.477-1.199H77.42v2.491h-.004zm0 3.672h.86c1.033 0 1.96-.218 1.96-1.305 0-1.245-1.088-1.42-2.075-1.42h-.745v2.725zm10.99.947h-1.041v-.934h-.021c-.322.67-1.101 1.074-1.914 1.074-1.511 0-2.189-.947-2.189-2.529v-3.497h1.076v3.05c0 1.373.296 2.042 1.236 2.102 1.228 0 1.778-.994 1.778-2.422v-2.725h1.075v5.88zm1.397-1.156a2.857 2.857 0 001.342.413c.491 0 1.1-.209 1.1-.844 0-1.075-2.53-.98-2.53-2.631 0-1.224.905-1.813 2.06-1.813.505 0 .92.103 1.343.23l-.093.947c-.242-.149-.88-.298-1.135-.298-.55 0-1.033.23-1.033.716 0 1.199 2.532.853 2.532 2.734 0 1.258-.995 1.834-2.04 1.834-.551 0-1.114-.06-1.605-.324l.06-.964zm6.177-6.048h-1.215v-1.223h1.215v1.224zm-1.148 1.318h1.076v5.886h-1.076v-5.886zm3.048 0h1.042v.934h.021c.322-.67 1.101-1.074 1.914-1.074 1.511 0 2.188.946 2.188 2.529v3.496h-1.075v-3.049c0-1.373-.296-2.042-1.236-2.102-1.228 0-1.778.994-1.778 2.422v2.725H97.88v-5.88zm11.481 5.642c-.41.15-.88.38-1.845.38-2.075 0-3.027-1.27-3.027-3.186 0-1.744 1.088-2.976 2.739-2.976 1.947 0 2.578 1.433 2.578 3.326h-4.17a1.92 1.92 0 001.926 1.962c.711 0 1.537-.371 1.799-.589v1.084zm-.698-3.266c0-.9-.529-1.638-1.456-1.638-1.054 0-1.49.879-1.571 1.638h3.027zm2.155 2.354a2.857 2.857 0 001.342.413c.491 0 1.1-.209 1.1-.844 0-1.075-2.531-.98-2.531-2.631 0-1.224.906-1.813 2.062-1.813.503 0 .918.103 1.342.23l-.094.947c-.241-.149-.88-.298-1.134-.298-.55 0-1.033.23-1.033.716 0 1.199 2.531.853 2.531 2.734 0 1.258-.994 1.834-2.04 1.834-.55 0-1.113-.06-1.604-.324l.059-.964zm4.458 0a2.857 2.857 0 001.342.413c.491 0 1.1-.209 1.1-.844 0-1.075-2.531-.98-2.531-2.631 0-1.224.906-1.813 2.061-1.813.504 0 .919.103 1.342.23l-.093.947c-.241-.149-.88-.298-1.134-.298-.551 0-1.033.23-1.033.716 0 1.199 2.531.853 2.531 2.734 0 1.258-.995 1.834-2.04 1.834-.551 0-1.114-.06-1.605-.324l.06-.964z" fill="#004A8F"/></g><defs><clipPath id="clip0_8:21"><path fill="#fff" transform="translate(0 11)" d="M0 0h120v57H0z"/></clipPath></defs></svg>