<svg width="200" height="79" fill="none" xmlns="http://www.w3.org/2000/svg"><path d="M164.545 16.338A5.454 5.454 0 01169 13.134l-.545 3.112c-2.637-.091-4 1.923-4.364 4.395l-.818 5.035H160l1.273-7.415c.272-1.648.545-3.48.727-4.761l2.909-.092-.364 2.93zm-13.909 4.761a2.453 2.453 0 002.455 2.471h.273c1.181 0 2.454-.274 3.545-.732l.273 2.289c-1.455.64-3.091 1.007-4.637 1.007-3.272 0-5-1.831-5-4.944 0-4.12 2.637-7.69 6.91-7.69 2.545 0 4 1.465 4.09 3.387 0 2.564-2.181 3.937-6 3.937-.636 0-1.181 0-1.818-.092-.091 0-.091.183-.091.367zm1.819-2.472c1.909 0 3.09-.733 3.09-1.74 0-.64-.545-1.19-1.454-1.19-1.546.092-2.727 1.282-3 2.838.364 0 .818.092 1.364.092zm-6.182-2.93l-6.909 7.507v.092h5.818l-.546 2.563H135l.364-2.014 7.091-7.507v-.183h-5.364l.545-2.564h9l-.363 2.106zm-14.727-2.106l3.181-.091-2.091 12.268h-3.181l2.091-12.177zM134 7.915c.818 0 1.455.641 1.455 1.465v.092c0 1.098-.909 2.014-2 2.105A1.44 1.44 0 01132 10.113v-.092c0-1.19.909-2.106 2-2.106zm-13.818 13.184a2.453 2.453 0 002.454 2.471h.273c1.182 0 2.455-.274 3.546-.732l.272 2.289c-1.454.64-3.091 1.007-4.636 1.007-3.273 0-5-1.831-5-4.944 0-4.12 2.636-7.69 6.909-7.69 2.545 0 4 1.465 4.091 3.387 0 2.564-2.182 3.937-6 3.937-.636 0-1.182 0-1.818-.092-.091 0-.091.183-.091.367zM122 18.627c1.909 0 3.091-.733 3.091-1.74 0-.64-.546-1.19-1.455-1.19-1.545.092-2.727 1.282-3 2.838.364 0 .819.092 1.364.092zm-13 1.739l.364 2.289h.091l1.363-2.289 1.364-2.289c.818-1.373 1.091-2.93.727-4.486h2.909c.546 1.832.182 3.754-.818 5.31l-4.455 6.866H107l-.636-4.577h-.091l-.546 1.19-2.182 3.387H100l-1.818-12.175h3.182l.818 6.774.273 2.289h.09l1.364-2.289 1.909-3.387-.454-3.296h3l.636 6.683zm-13.546-3.753c0 .366 0 .732-.09 1.098l-1.273 8.057h-3.273l1.091-6.592c.091-.55.182-1.099.182-1.648 0-.824-.273-1.556-1.182-1.556-1.818 0-3.182 3.296-3.636 5.218-.364 1.648-.546 2.93-.819 4.67h-3.181l3.09-18.128 3.273-.091-1.454 8.422h.09c.819-1.556 2.364-2.655 4.182-2.746 1.91 0 3 1.19 3 3.296zm-20 4.119c-.181 1.374.728 2.564 2.091 2.747h.546c1 0 2-.183 2.909-.55l.182 2.38c-1.273.458-2.637.733-4 .733-3.091 0-5-1.74-5-4.852-.182-4.12 3-7.599 7.09-7.782h.546c1 0 2 .184 2.91.458l-.637 2.472c-.727-.275-1.455-.458-2.182-.458-2.636 0-4.455 1.923-4.455 4.852zm-8.909 1.648c0-1.648-4.454-1.83-4.454-5.035 0-2.655 2.363-4.028 5.09-4.028 1.092 0 2.183.183 3.183.64l-.637 2.381a7.362 7.362 0 00-2.818-.55c-1 0-1.727.458-1.727 1.19 0 1.557 4.454 1.74 4.454 4.761s-2.545 4.303-5.363 4.303c-1.273 0-2.637-.275-3.818-.824l.636-2.38c1.09.458 2.273.732 3.454.824 1.364 0 2-.55 2-1.282zM3.09 32.084l3.183-.091-1.364 7.965H5c.727-1.373 2.182-2.289 3.818-2.38 2.546 0 3.637 2.105 3.637 4.485 0 4.029-2.364 8.24-7.455 8.24-2.273 0-3.636-.824-4.273-2.38 0-1.557.182-3.022.455-4.578l1.909-11.26zm.728 14.831c.364.641 1 1.008 1.637.916C7.636 47.83 9 44.993 9 42.429c0-1.373-.455-2.288-1.636-2.288-2.364.091-3.637 4.12-3.546 6.775zm21.728-4.302c-.455 2.471-.819 4.943-.91 7.415h-3.09l.363-3.021h-.09c-1 2.014-2.546 3.296-4.092 3.296-2.272 0-3.636-1.74-3.636-4.211 0-4.212 3.182-8.423 6.909-8.423.818 0 1.636.183 2.364.64h.09l.273-.365 2.637-.184-.819 4.853zm-2.728-2.29c-.363-.182-.818-.365-1.273-.365-2.363 0-4 2.655-4 5.584 0 1.282.455 2.197 1.546 2.197 1.182 0 2.727-1.464 3.273-4.852l.454-2.563zM36.09 47.19c-.817 1.831-2.545 3.021-4.545 3.113-3.272 0-3.363-2.747-2.909-5.493l1.182-6.958H33l-1.09 6.592c-.183 1.098-.546 3.295 1.18 3.295 1.183 0 2.728-1.373 3.274-4.21.181-.642.818-4.945 1-5.677h3.181l-.818 4.76c-.454 2.472-.818 4.944-.909 7.416h-3.09l.363-2.838zm9.365-1.83a2.453 2.453 0 002.454 2.47h.273c1.182 0 2.454-.274 3.545-.731L52 49.386c-1.455.641-3.09 1.007-4.636 1.007-3.273 0-5-1.83-5-4.943 0-4.12 2.636-7.69 6.909-7.69 2.545 0 4 1.464 4.09 3.387 0 2.563-2.181 3.936-6 3.936-.636 0-1.181 0-1.818-.091-.09 0-.09.183-.09.366zm1.727-2.473c1.909 0 3.09-.732 3.09-1.74 0-.64-.545-1.19-1.454-1.19-1.545.092-2.727 1.282-3 2.839.364.091.91.091 1.364.091zm12.091-2.197a5.452 5.452 0 014.454-3.204l-.545 3.113c-2.637-.092-4 1.922-4.364 4.394L58 50.028h-3.182l1.273-7.415c.273-1.648.545-3.48.727-4.76l2.91-.093-.455 2.93zm16.637 1.099l-1.365 8.24h-3.272l1.09-6.684c.182-1.19.546-3.204-1.181-3.204-1.182 0-2.91 1.74-3.455 5.127L67 50.027h-3.182l1.273-7.415c.273-1.648.545-3.296.727-4.761l2.91-.091-.364 2.837h.09c.91-1.739 2.637-2.837 4.546-3.02 2.364 0 3.273 1.83 2.91 4.21zm4.272 8.239l-1.818-12.176h3.181l.819 6.775.363 2.288 1.364-2.288 1.364-2.289c.818-1.373 1.09-2.93.727-4.486h2.909c.545 1.831.182 3.754-.818 5.31l-4.546 6.866h-3.545zm13.363-4.668A2.453 2.453 0 0096 47.83h.273c1.181 0 2.454-.274 3.545-.731l.273 2.288c-1.455.641-3.091 1.007-4.636 1.007-3.273 0-5-1.83-5-4.943 0-4.12 2.636-7.69 6.909-7.69 2.545 0 4 1.464 4.091 3.387 0 2.563-2.182 3.936-6 3.936-.637 0-1.182 0-1.819-.091-.09 0-.09.183-.09.366zm1.819-2.473c1.909 0 3.09-.732 3.09-1.74 0-.64-.545-1.19-1.454-1.19-1.546.092-2.727 1.282-3 2.839.364.091.818.091 1.364.091zm12.091-2.197a5.451 5.451 0 014.454-3.204l-.545 3.113c-2.637-.092-4 1.922-4.364 4.394l-.818 5.035H103l1.273-7.415c.272-1.648.545-3.48.727-4.76l2.909-.093-.454 2.93zM115 32.084l3.182-.091-1.364 8.056h.091c.727-1.373 2.182-2.288 3.818-2.38 2.546 0 3.637 2.106 3.637 4.486 0 4.028-2.364 8.24-7.455 8.24-2.273 0-3.636-.825-4.273-2.381 0-1.556.182-3.021.455-4.577L115 32.085zm.727 14.831c.364.641 1 1.008 1.637.916 2.182 0 3.545-2.838 3.545-5.402 0-1.373-.454-2.288-1.636-2.288-2.364.091-3.637 4.12-3.546 6.775zm21.728-4.302c-.455 2.471-.819 4.943-.91 7.415h-3.09l.363-3.021h-.091c-1 2.014-2.545 3.296-4.091 3.296-2.272 0-3.636-1.74-3.636-4.211 0-4.212 3.182-8.423 6.909-8.423.818 0 1.637.183 2.364.64h.091l.272-.365 2.637-.184-.818 4.853zm-2.728-2.29c-.363-.182-.818-.365-1.272-.365-2.364 0-4 2.655-4 5.584 0 1.282.454 2.197 1.545 2.197 1.182 0 2.727-1.464 3.273-4.852l.454-2.563zm17.182 1.466l-1.364 8.24h-3.272l1.091-6.684c.181-1.19.545-3.204-1.182-3.204-1.182 0-2.909 1.74-3.455 5.127l-.818 4.669h-3.182L141 42.52c.273-1.648.545-3.296.727-4.76l2.909-.092-.363 2.838h.091c.909-1.74 2.636-2.838 4.545-3.021 2.546.092 3.455 1.922 3 4.303zm11.364-3.479l1-6.226 3.182-.091-2 11.993c-.364 2.014-.546 4.028-.728 6.042h-3.091l.364-3.021h-.091c-1 2.014-2.454 3.296-4.182 3.296-2.272 0-3.636-1.831-3.636-4.486 0-3.57 2.545-8.148 6.636-8.148 1-.092 1.819.183 2.546.64zm-.364 2.197c-.454-.366-1-.55-1.545-.458-2.182 0-3.819 2.655-3.819 5.493 0 1.465.546 2.289 1.637 2.289 1.182 0 2.636-1.465 3.182-4.486l.545-2.838z" fill="#fff"/><path d="M199 64.768l-11.818 5.859-11.727-5.951L187 58.634l12 6.134zm-13.636-7.05l-11.546 6.043-12.363-6.317c7.818-2.472 16.181-2.289 23.909.274zm12.727-6.591L187 56.894l-11.273-5.767h22.364zm-.182-1.557l-11.182-5.676-11.091 5.677h22.273zm-25.818 15.106L160 70.81V58.45l12.091 6.226zm-25.909 0l12 6.134V58.542l-12 6.134z" fill="#9EA600"/></svg>