<svg version="1.1" id="Ebene_1" xmlns="http://www.w3.org/2000/svg" x="0" y="0" viewBox="0 0 220 71" xml:space="preserve"><style>.st0{fill:#fff}</style><g id="logo"><path id="Pfad_1" class="st0" d="M181 10.2c.9-2 2.8-3.3 4.9-3.5l-.6 3.4c-2.9-.1-4.4 2.1-4.8 4.8l-.9 5.5H176l1.4-8.1c.3-1.8.6-3.8.8-5.2l3.2-.1-.4 3.2z"/><path id="Pfad_2" class="st0" d="M165.7 15.4c0 1.5 1.2 2.7 2.7 2.7h.3c1.3 0 2.7-.3 3.9-.8l.3 2.5c-1.6.7-3.4 1.1-5.1 1.1-3.6 0-5.5-2-5.5-5.4 0-4.5 2.9-8.4 7.6-8.4 2.8 0 4.4 1.6 4.5 3.7 0 2.8-2.4 4.3-6.6 4.3-.7 0-1.3 0-2-.1-.1 0-.1.2-.1.4zm2-2.7c2.1 0 3.4-.8 3.4-1.9 0-.7-.6-1.3-1.6-1.3-1.7.1-3 1.4-3.3 3.1.4 0 .9.1 1.5.1z"/><path id="Pfad_3" class="st0" d="M160.9 9.5l-7.6 8.2v.1h6.4l-.6 2.8h-10.6l.4-2.2 7.8-8.2V10h-5.9l.6-2.8h9.9l-.4 2.3z"/><path id="Pfad_4" class="st0" d="M144.7 7.2l3.5-.1-2.3 13.4h-3.5l2.3-13.3zm2.7-6.2c.9 0 1.6.7 1.6 1.6v.1c0 1.2-1 2.2-2.2 2.3-.9 0-1.6-.7-1.6-1.6v-.1c0-1.3 1-2.3 2.2-2.3z"/><path id="Pfad_5" class="st0" d="M132.2 15.4c0 1.5 1.2 2.7 2.7 2.7h.3c1.3 0 2.7-.3 3.9-.8l.3 2.5c-1.6.7-3.4 1.1-5.1 1.1-3.6 0-5.5-2-5.5-5.4 0-4.5 2.9-8.4 7.6-8.4 2.8 0 4.4 1.6 4.5 3.7 0 2.8-2.4 4.3-6.6 4.3-.7 0-1.3 0-2-.1-.1 0-.1.2-.1.4zm2-2.7c2.1 0 3.4-.8 3.4-1.9 0-.7-.6-1.3-1.6-1.3-1.7.1-3 1.4-3.3 3.1.4 0 .9.1 1.5.1z"/><path id="Pfad_6" class="st0" d="M119.9 14.6l.4 2.5h.1l1.5-2.5 1.5-2.5c.9-1.5 1.2-3.2.8-4.9h3.2c.6 2 .2 4.1-.9 5.8l-4.9 7.5h-3.9l-.7-5h-.1l-.6 1.3-2.4 3.7H110l-2-13.3h3.5l.9 7.4.3 2.5h.1l1.5-2.5 2.1-3.7-.5-3.6h3.3l.7 7.3z"/><path id="Pfad_7" class="st0" d="M105 10.5c0 .4 0 .8-.1 1.2l-1.4 8.8h-3.6l1.2-7.2c.1-.6.2-1.2.2-1.8 0-.9-.3-1.7-1.3-1.7-2 0-3.5 3.6-4 5.7-.4 1.8-.6 3.2-.9 5.1h-3.5L95 .8l3.6-.1L97 9.9h.1c.9-1.7 2.6-2.9 4.6-3 2.1 0 3.3 1.3 3.3 3.6z"/><path id="Pfad_8" class="st0" d="M83 15c-.2 1.5.8 2.8 2.3 3h.6c1.1 0 2.2-.2 3.2-.6l.2 2.6c-1.4.5-2.9.8-4.4.8-3.4 0-5.5-1.9-5.5-5.3-.2-4.5 3.3-8.3 7.8-8.5h.6c1.1 0 2.2.2 3.2.5l-.7 2.7c-.8-.3-1.6-.5-2.4-.5C85 9.7 83 11.8 83 15z"/><path id="Pfad_9" class="st0" d="M73.2 16.8c0-1.8-4.9-2-4.9-5.5 0-2.9 2.6-4.4 5.6-4.4 1.2 0 2.4.2 3.5.7l-.7 2.6c-1-.4-2-.6-3.1-.6s-1.9.5-1.9 1.3c0 1.7 4.9 1.9 4.9 5.2s-2.8 4.7-5.9 4.7c-1.4 0-2.9-.3-4.2-.9l.7-2.6c1.2.5 2.5.8 3.8.9 1.5 0 2.2-.6 2.2-1.4z"/><path id="Pfad_10" class="st0" d="M3.4 27.4l3.5-.1L5.4 36h.1c.8-1.5 2.4-2.5 4.2-2.6 2.8 0 4 2.3 4 4.9 0 4.4-2.6 9-8.2 9-2.5 0-4-.9-4.7-2.6 0-1.7.2-3.3.5-5l2.1-12.3zm.8 16.2c.4.7 1.1 1.1 1.8 1 2.4 0 3.9-3.1 3.9-5.9 0-1.5-.5-2.5-1.8-2.5-2.6.1-4 4.5-3.9 7.4z"/><path id="Pfad_11" class="st0" d="M28.1 38.9c-.5 2.7-.9 5.4-1 8.1h-3.4l.4-3.3H24c-1.1 2.2-2.8 3.6-4.5 3.6-2.5 0-4-1.9-4-4.6 0-4.6 3.5-9.2 7.6-9.2.9 0 1.8.2 2.6.7h.1l.3-.4 2.9-.2-.9 5.3zm-3-2.5c-.4-.2-.9-.4-1.4-.4-2.6 0-4.4 2.9-4.4 6.1 0 1.4.5 2.4 1.7 2.4 1.3 0 3-1.6 3.6-5.3l.5-2.8z"/><path id="Pfad_12" class="st0" d="M39.7 43.9c-.9 2-2.8 3.3-5 3.4-3.6 0-3.7-3-3.2-6l1.3-7.6h3.5l-1.2 7.2c-.2 1.2-.6 3.6 1.3 3.6 1.3 0 3-1.5 3.6-4.6.2-.7.9-5.4 1.1-6.2h3.5l-.9 5.2c-.5 2.7-.9 5.4-1 8.1h-3.4l.4-3.1z"/><path id="Pfad_13" class="st0" d="M50 41.9c0 1.5 1.2 2.7 2.7 2.7h.3c1.3 0 2.7-.3 3.9-.8l.3 2.5c-1.6.7-3.4 1.1-5.1 1.1-3.6 0-5.5-2-5.5-5.4 0-4.5 2.9-8.4 7.6-8.4 2.8 0 4.4 1.6 4.5 3.7 0 2.8-2.4 4.3-6.6 4.3-.7 0-1.3 0-2-.1-.1 0-.1.2-.1.4zm1.9-2.7c2.1 0 3.4-.8 3.4-1.9 0-.7-.6-1.3-1.6-1.3-1.7.1-3 1.4-3.3 3.1.4.1 1 .1 1.5.1z"/><path id="Pfad_14" class="st0" d="M65.2 36.8c.9-2 2.8-3.3 4.9-3.5l-.6 3.4c-2.9-.1-4.4 2.1-4.8 4.8l-.9 5.5h-3.5l1.4-8.1c.3-1.8.6-3.8.8-5.2l3.2-.1-.5 3.2z"/><path id="Pfad_15" class="st0" d="M83.5 38L82 47h-3.6l1.2-7.3c.2-1.3.6-3.5-1.3-3.5-1.3 0-3.2 1.9-3.8 5.6l-.8 5.2h-3.5l1.4-8.1c.3-1.8.6-3.6.8-5.2l3.2-.1-.4 3.1h.1c1-1.9 2.9-3.1 5-3.3 2.6 0 3.6 2 3.2 4.6z"/><path id="Pfad_16" class="st0" d="M88.2 47l-2-13.3h3.5l.9 7.4.4 2.5 1.5-2.5 1.5-2.5c.9-1.5 1.2-3.2.8-4.9H98c.6 2 .2 4.1-.9 5.8l-5 7.5h-3.9z"/><path id="Pfad_17" class="st0" d="M102.9 41.9c0 1.5 1.2 2.7 2.7 2.7h.3c1.3 0 2.7-.3 3.9-.8l.3 2.5c-1.6.7-3.4 1.1-5.1 1.1-3.6 0-5.5-2-5.5-5.4 0-4.5 2.9-8.4 7.6-8.4 2.8 0 4.4 1.6 4.5 3.7 0 2.8-2.4 4.3-6.6 4.3-.7 0-1.3 0-2-.1-.1 0-.1.2-.1.4zm2-2.7c2.1 0 3.4-.8 3.4-1.9 0-.7-.6-1.3-1.6-1.3-1.7.1-3 1.4-3.3 3.1.4.1.9.1 1.5.1z"/><path id="Pfad_18" class="st0" d="M118.2 36.8c.9-2 2.8-3.3 4.9-3.5l-.6 3.4c-2.9-.1-4.4 2.1-4.8 4.8l-.9 5.5h-3.5l1.4-8.1c.3-1.8.6-3.8.8-5.2l3.2-.1-.5 3.2z"/><path id="Pfad_19" class="st0" d="M126.5 27.4l3.5-.1-1.5 8.8h.1c.8-1.5 2.4-2.5 4.2-2.6 2.8 0 4 2.3 4 4.9 0 4.4-2.6 9-8.2 9-2.5 0-4-.9-4.7-2.6 0-1.7.2-3.3.5-5l2.1-12.4zm.8 16.2c.4.7 1.1 1.1 1.8 1 2.4 0 3.9-3.1 3.9-5.9 0-1.5-.5-2.5-1.8-2.5-2.6.1-4 4.5-3.9 7.4z"/><path id="Pfad_20" class="st0" d="M151.2 38.9c-.5 2.7-.9 5.4-1 8.1h-3.4l.4-3.3h-.1c-1.1 2.2-2.8 3.6-4.5 3.6-2.5 0-4-1.9-4-4.6 0-4.6 3.5-9.2 7.6-9.2.9 0 1.8.2 2.6.7h.1l.3-.4 2.9-.2-.9 5.3zm-3-2.5c-.4-.2-.9-.4-1.4-.4-2.6 0-4.4 2.9-4.4 6.1 0 1.4.5 2.4 1.7 2.4 1.3 0 3-1.6 3.6-5.3l.5-2.8z"/><path id="Pfad_21" class="st0" d="M167.1 38l-1.5 9H162l1.2-7.3c.2-1.3.6-3.5-1.3-3.5-1.3 0-3.2 1.9-3.8 5.6l-.9 5.1h-3.5l1.4-8.1c.3-1.8.6-3.6.8-5.2l3.2-.1-.4 3.1h.1c1-1.9 2.9-3.1 5-3.3 2.8.1 3.8 2.1 3.3 4.7z"/><path id="Pfad_22" class="st0" d="M179.6 34.2l1.1-6.8 3.5-.1-2.2 13.1c-.4 2.2-.6 4.4-.8 6.6h-3.4l.4-3.3h-.1c-1.1 2.2-2.7 3.6-4.6 3.6-2.5 0-4-2-4-4.9 0-3.9 2.8-8.9 7.3-8.9 1.1-.1 2 .2 2.8.7zm-.4 2.4c-.5-.4-1.1-.6-1.7-.5-2.4 0-4.2 2.9-4.2 6 0 1.6.6 2.5 1.8 2.5 1.3 0 2.9-1.6 3.5-4.9l.6-3.1z"/><path id="Pfad_23" class="st0" d="M218.9 63.1l-13 6.4L193 63l12.7-6.6 13.2 6.7z"/><path id="Pfad_24" class="st0" d="M203.9 55.4L191.2 62l-13.6-6.9c8.6-2.7 17.8-2.5 26.3.3"/><path id="Pfad_25" class="st0" d="M217.9 48.2l-12.2 6.3-12.4-6.3h24.6z"/><path id="Pfad_26" class="st0" d="M217.7 46.5l-12.3-6.2-12.2 6.2h24.5z"/><path id="Pfad_27" class="st0" d="M189.3 63L176 69.7V56.2l13.3 6.8z"/><path id="Pfad_28" class="st0" d="M160.8 63l13.2 6.7V56.3L160.8 63z"/></g></svg>