<svg width="134" height="79" fill="none" xmlns="http://www.w3.org/2000/svg"><path d="M46.498 13.556c-.59-1.143-1.39-2.067-2.416-2.765-1.022-.702-2.222-1.212-3.6-1.528-1.377-.317-2.856-.475-4.442-.475H25.41v5.701h10.063c.628 0 1.234.043 1.819.124a4.738 4.738 0 011.577.497c.462.248.83.595 1.106 1.031.271.441.411 1.006.411 1.696 0 .689-.135 1.258-.41 1.716a3.084 3.084 0 01-1.129 1.091 5.015 5.015 0 01-1.615.583c-.602.11-1.229.162-1.882.162h-9.94V38.04h6.998V27.005h3.476c1.501 0 2.947-.162 4.337-.496 1.39-.33 2.62-.852 3.684-1.571a7.745 7.745 0 002.535-2.83c.627-1.168.94-2.61.94-4.319-.004-1.678-.292-3.09-.881-4.233zm62.996 1.263h8.181v23.217h6.999V8.788h-15.18v6.03zM134 8.783h-6.414v6.032H134V8.783zM65.612 14.36c1.23 0 2.352.228 3.374.681a7.885 7.885 0 012.62 1.858c.72.783 1.288 1.73 1.7 2.83.41 1.104.614 2.285.614 3.552 0 1.323-.203 2.543-.614 3.656-.412 1.117-.98 2.072-1.717 2.872-.093.103-.2.197-.301.291l2.721 6.613a14.298 14.298 0 002.921-2.174c1.403-1.361 2.501-3 3.29-4.918.788-1.914 1.186-4.028 1.186-6.34 0-2.341-.398-4.456-1.187-6.343-.788-1.888-1.89-3.489-3.289-4.812-1.407-1.322-3.078-2.341-5.01-3.056C69.973 8.36 67.874 8 65.611 8c-1.145 0-2.247.094-3.302.278l2.517 6.121c.255-.021.518-.038.785-.038zm-3.938 24.044L74.9 70.534h7.303l-15.722-38.2a8.31 8.31 0 01-.87.043c-1.229 0-2.344-.227-3.352-.68a7.715 7.715 0 01-2.599-1.884c-.725-.796-1.293-1.755-1.7-2.872-.41-1.113-.614-2.333-.614-3.655 0-1.267.199-2.453.593-3.553.394-1.1.962-2.046 1.7-2.83.11-.12.237-.23.356-.342l-2.7-6.562a14.061 14.061 0 00-2.955 2.132c-1.407 1.322-2.5 2.928-3.294 4.811-.788 1.888-1.187 4.002-1.187 6.344 0 2.315.399 4.426 1.187 6.343.793 1.914 1.891 3.553 3.294 4.914 1.407 1.361 3.07 2.419 4.994 3.163.754.287 1.534.523 2.34.698zm25.904 8.583a12.011 12.011 0 011.624.124c.564.081 1.068.24 1.522.475a2.96 2.96 0 011.11.993c.288.428.433.984.433 1.67 0 .744-.157 1.348-.475 1.819a3.1 3.1 0 01-1.056.98c-.055.03-.101.064-.157.094a5.66 5.66 0 01-1.644.518 10.93 10.93 0 01-1.768.145h-2.98l6.884 16.728v.005h6.859l-5.108-12.414c2.086-.56 3.692-1.643 4.756-2.996 1.064-1.348 1.598-3.018 1.598-5 0-1.678-.313-3.081-.94-4.216a7.635 7.635 0 00-2.519-2.727c-1.051-.689-2.238-1.177-3.556-1.468a19.188 19.188 0 00-4.074-.432H75.896l2.36 5.702h9.322zm7.029-32.497a12.53 12.53 0 011.624.124 4.74 4.74 0 011.521.474c.45.236.822.566 1.107.994.288.428.432.984.432 1.669 0 .745-.157 1.348-.475 1.82a3.11 3.11 0 01-1.056.98c-.055.03-.105.064-.156.094a5.664 5.664 0 01-1.645.518 10.93 10.93 0 01-1.768.145h-2.98l6.884 16.728v.004h6.859l-5.108-12.413c2.09-.56 3.697-1.644 4.756-2.996 1.064-1.349 1.598-3.018 1.598-5 0-1.678-.313-3.082-.941-4.216a7.66 7.66 0 00-2.518-2.727c-1.051-.689-2.238-1.177-3.556-1.464a18.916 18.916 0 00-4.074-.432H81.39l2.357 5.701h10.86v-.004zm30.457 34.414c-.954-1.875-2.208-3.369-3.764-4.481-1.556-1.118-3.328-1.914-5.316-2.398a25.562 25.562 0 00-6.053-.723H99.469l6.82 16.578V47.333h3.476c1.2 0 2.366.137 3.498.416 1.131.278 2.14.736 3.026 1.386.886.647 1.598 1.516 2.128 2.599.53 1.087.797 2.457.797 4.113 0 1.627-.263 2.988-.797 4.092-.534 1.1-1.242 1.982-2.128 2.646-.886.659-1.907 1.134-3.069 1.425a14.79 14.79 0 01-3.62.432h-.619l2.497 6.074a21.08 21.08 0 004.667-.809 15.433 15.433 0 005.214-2.645c1.539-1.198 2.785-2.727 3.722-4.584.941-1.858 1.412-4.067 1.412-6.63.004-2.758-.475-5.069-1.429-6.944zM50.033 70.533h7.3l5.926-14.403-3.654-8.878-9.572 23.281zM12.64 8.044c-1.364 0-2.712.171-4.052.518a10.964 10.964 0 00-3.599 1.63 8.535 8.535 0 00-2.573 2.852c-.657 1.155-.979 2.546-.979 4.169 0 1.322.212 2.444.632 3.368.424.925.979 1.708 1.678 2.355a9.068 9.068 0 002.374 1.588 24 24 0 002.722 1.074c.953.304 1.805.587 2.556.848.75.26 1.377.552 1.882.869.504.316.894.668 1.166 1.053.27.39.41.856.41 1.404 0 .582-.11 1.074-.326 1.49a2.67 2.67 0 01-.877.988 3.683 3.683 0 01-1.289.535 6.835 6.835 0 01-1.513.167c-1.145 0-2.302-.295-3.455-.886-1.161-.595-2.094-1.331-2.802-2.209L0 34.566c1.28 1.348 2.891 2.393 4.828 3.12a16.935 16.935 0 006.015 1.092c1.416 0 2.794-.193 4.13-.578 1.335-.385 2.521-.976 3.56-1.777 1.034-.796 1.861-1.81 2.476-3.034.614-1.229.92-2.68.92-4.358 0-1.46-.289-2.68-.861-3.655a8.418 8.418 0 00-2.166-2.457 11.518 11.518 0 00-2.904-1.588 85.28 85.28 0 00-3.069-1.096 44.937 44.937 0 01-1.844-.638 8.245 8.245 0 01-1.412-.68c-.398-.249-.695-.536-.898-.87-.208-.33-.31-.744-.31-1.24 0-.579.132-1.054.39-1.426a3.15 3.15 0 01.963-.908 3.56 3.56 0 011.288-.475c.48-.081.95-.124 1.412-.124.042 0 .085.004.508.004V8.044h-.385zM42.895 64.4c-4.795 0-8.678-3.926-8.678-8.767 0-4.837 3.883-8.762 8.678-8.762 3.594 0 6.68 2.209 7.999 5.355l2.976-7.234c-2.768-2.91-6.66-4.726-10.971-4.726-8.406 0-15.218 6.883-15.218 15.367C27.68 64.121 34.497 71 42.899 71c.093 0 .187-.004.28-.009l2.976-7.238a8.551 8.551 0 01-3.26.647z" fill="#0071A6"/></svg>