<svg width="134" height="79" fill="none" xmlns="http://www.w3.org/2000/svg"><path d="M66.407 44.866h-.077l-.05-.06c-.62-.778-.95-1.802-1.375-2.703-.072 0-.147.003-.222.003-.212-.005-.436-.003-.61-.17l-.043-.047v-.947a.33.33 0 00-.087-.01c-.11 0-.278.03-.436.03a.654.654 0 01-.176-.018l-.158-.048.053-.152c.26-.8.393-1.348.393-1.89 0-.523-.124-1.053-.381-1.786-.318-.638-1.693-.48-2.636-.818-.895.664-2.627 1.072-2.571 1.952 0 .249.121.574.455.993l.122.15-.173.087c-.752.367-1.331 1.52-2.597 1.535a2.44 2.44 0 01-.796-.143l-.086-.03-.017-.09a1.198 1.198 0 01-.016-.2c.047-1.13 1.508-1.73 1.749-2.876-.385-.34-.586-.776-.586-1.207-.003-.459.23-.906.682-1.217a3.108 3.108 0 01-.194-.848l-.01-.104.094-.048c1.146-.586 2.015-1.491 3.185-2.143.004-.104.007-.215.007-.325 0-.404-.023-.835-.023-1.247.002-.645.049-1.258.406-1.661l.047-.053h.838c1.856-1.316 3.234-3.132 4.555-5.02-.404-.092-.656-.283-1.02-.306l-.178-.014.033-.173c.14-.698.883-1.56 2.167-1.564.182 0 .38.018.586.057l.131.023v.708c.287.087.544.122.775.122.806 0 1.343-.442 1.836-.922.49-.47.913-1 1.564-1.012.327 0 .67.148 1.056.475.275-.17.408-.654.997-.774l.044-.007.037.014c.62.221.89.387 1.331.385.131 0 .276-.014.456-.046.462-.067.742-.68 1.281-.807.094-.018.187-.023.285-.023.72.005 1.572.357 2.347.378l-.01.316c-.852-.03-1.72-.38-2.334-.376-.084 0-.16.005-.227.018-.294.017-.63.66-1.28.807a2.992 2.992 0 01-.515.053c-.526-.002-.843-.191-1.404-.394-.376.071-.457.54-.966.79l-.096.042-.075-.067c-.39-.348-.686-.463-.925-.463-.434-.012-.838.424-1.34.922-.497.486-1.12 1.011-2.06 1.011-.298 0-.625-.055-.983-.173l-.11-.034v-.673c-.14-.02-.27-.03-.396-.03-1.023-.002-1.62.62-1.81 1.148.441.087.698.3 1.093.32l.28.02-.159.227c-1.377 1.977-2.82 3.924-4.822 5.33l-.041.03h-.792c-.217.288-.285.806-.28 1.398 0 .404.023.835.023 1.247 0 .145-.005.288-.012.426l-.004.088-.077.044c-1.123.604-1.992 1.507-3.176 2.14.035.289.112.538.215.77l.054.125-.12.071c-.44.265-.64.636-.64 1.019 0 .355.174.726.542 1.027l.073.058-.017.092c-.277 1.397-1.81 2.067-1.758 2.908 0 .019 0 .035.002.053.22.067.414.095.596.095.971.016 1.499-.894 2.29-1.404-.284-.389-.415-.73-.415-1.046.058-1.302 2.062-1.599 2.76-2.251l.077-.065.093.042c.778.378 2.305.074 2.886 1.011.274.77.412 1.342.412 1.915 0 .547-.124 1.084-.346 1.791.103-.007.231-.025.352-.028.134-.007.358.042.402.258l.005.014v.86a.939.939 0 00.331.044c.1 0 .213-.005.323-.005h.1l.044.087c.446.927.77 1.943 1.334 2.674.777-.021 1.018-.63 1.9-.807l.033-.002a.592.592 0 01.49.267.684.684 0 00.16.175c.627-.454 1.265-.915 2.063-1.233l.063-.025.064.028c.796.355 1.503.735 2.559.785-.003-.027-.003-.055-.003-.082-.002-.335.1-.609.304-.79l.058-.056.08.014a.504.504 0 00.123.014c.18.013.292-.132.626-.143.017 0 .033 0 .054.002.187-.459.392-.887.53-1.369l.028-.106.112-.01c.607-.047.922-.294 1.114-.734-.301-.376-.432-.86-.654-1.212l-.06-.102.079-.085a46.278 46.278 0 013.073-3.037l.217.23a46.11 46.11 0 00-2.975 2.934c.227.41.367.862.621 1.136l.066.071-.03.088c-.195.557-.638.942-1.316 1.016-.156.512-.373.952-.555 1.41l-.052.123-.13-.026a.657.657 0 00-.124-.014c-.18-.011-.294.134-.626.145a.64.64 0 01-.093-.006c-.094.113-.15.27-.15.507 0 .069.003.142.014.225l.021.18-.18-.002c-1.202-.012-2-.431-2.801-.79-.748.31-1.366.762-2.002 1.22l-.06.044-.07-.016c-.227-.053-.327-.22-.402-.318-.084-.099-.105-.136-.236-.143h.002c-.695.1-.978.793-2.005.81h-.021zm-2.373-3.926h.003-.003z" fill="#fff"/><path d="M88.452 38.584c1.1.745 2.115 1.574 3.64 1.897-.213.357-.602.537-.813.896.577.597 1.7.65 1.418 2.095.815.104 1.258-.154 1.415-.698-.229-.443-.766-.576-.908-1.102.495-1.37 1.695-2.046 2.222-3.387V35.39c2.263-.413 1.717 2.302 2.936 2.495 1.22.191 1.415-1.687 3.234-1.198.126.802.826 1.896 1.718 1.3.047-.577-.572-.498-.605-1 .131-.266.267-.526.402-.798-.308-.196-.759-.249-.911-.599-.233-1.327.533-1.67 1.114-2.191.568.569 1.2 1.071 2.426.995V33.4c-.219-.153-.63-.111-.707-.401.271-.96.369-2.098.707-2.994-.156-.408-.471-.664-.808-.896-.341.23-.492.645-1.209.5-.07.7-.451 1.087-.913 1.396-.523-.514-1.235-.845-2.225-.898v-1.3c-.813-.162-1.77-.18-2.424-.496-.164-.873-.416-1.657-.607-2.495.357-.51.751-.984 1.01-1.595-.742-1.17-1.755-2.535-3.336-2.892-.691-.16-1.387.046-2.024-.401-.386.115-.74.265-1.11.4-.534-.158-.952-1.308-1.72-1.495-1.077-.267-2.16.13-2.224 1.298.271.48 1.044-.06 1.315.497-.409.454-.92.544-1.443.498v13.78M73.58 29.13h-4.21v4.154h4.21V29.13z" fill="#EA2026"/><path d="M73.04 30.71h-1.06v-1.037h-1.004v1.037h-1.062v.996h1.062v1.048h1.004v-1.048h1.06v-.996zM5.52 50.033a1.731 1.731 0 00-.471-.56 1.96 1.96 0 00-.682-.325 3.313 3.313 0 00-1.497-.032 1.997 1.997 0 00-.628.237c-.191.11-.345.253-.464.436a1.18 1.18 0 00-.176.661c0 .221.054.408.166.558.112.152.252.283.425.39.168.1.353.19.558.257.203.07.388.125.56.168l1.343.3c.287.041.57.115.857.226.276.11.53.256.747.435.22.178.395.401.538.662.135.26.207.569.207.928 0 .445-.1.819-.303 1.13a2.42 2.42 0 01-.778.755 3.277 3.277 0 01-1.06.417 5.518 5.518 0 01-1.167.127c-.972 0-1.754-.226-2.359-.677-.602-.45-.945-1.175-1.03-2.176h1.007c.042.673.29 1.18.74 1.519.455.341 1.018.516 1.688.516.243 0 .498-.03.76-.08.26-.056.504-.141.728-.268.224-.129.404-.288.553-.484.14-.196.215-.433.215-.719a1.19 1.19 0 00-.15-.606 1.358 1.358 0 00-.41-.41 2.514 2.514 0 00-.584-.274 6.13 6.13 0 00-.661-.19l-1.294-.287a6.761 6.761 0 01-.91-.29 2.849 2.849 0 01-.727-.41 1.709 1.709 0 01-.485-.6c-.117-.235-.178-.525-.178-.875 0-.408.094-.761.28-1.056.185-.295.43-.528.73-.71.296-.177.63-.309.998-.394a4.925 4.925 0 011.096-.124c.415 0 .8.05 1.158.159.357.104.672.267.943.486.269.224.488.495.647.825.161.325.25.71.273 1.148H5.714a1.92 1.92 0 00-.193-.793zm5.257-1.583l2.108 6.97h.033l2.013-6.97h1.135l2.015 6.97h.03l2.111-6.97h1.07l-2.653 8.137h-1.102l-2.032-6.844h-.03l-2.015 6.844h-1.102L9.705 48.45h1.072zm14.699-1.53h-1.007v-1.593h1.007v1.593zm0 9.667h-1.007V48.45h1.007v8.137zm8.758-6.554a1.642 1.642 0 00-.469-.56 1.98 1.98 0 00-.682-.325 3.313 3.313 0 00-1.497-.032 1.976 1.976 0 00-.628.237c-.191.11-.345.253-.464.436-.12.177-.175.398-.175.661 0 .221.053.408.165.558.11.152.253.283.423.39.17.1.355.19.56.257.204.07.388.125.559.168l1.342.3c.29.041.572.115.857.226.28.11.532.256.747.435.222.178.397.401.54.662.135.26.207.569.207.928 0 .445-.102.819-.303 1.13a2.444 2.444 0 01-.778.755 3.298 3.298 0 01-1.06.417 5.54 5.54 0 01-1.17.127c-.969 0-1.75-.226-2.356-.677-.602-.45-.948-1.175-1.03-2.176h1.007c.042.673.29 1.18.743 1.519.453.341 1.015.516 1.686.516.242 0 .497-.03.756-.08.262-.056.507-.141.73-.268a1.8 1.8 0 00.554-.484 1.2 1.2 0 00.213-.719 1.17 1.17 0 00-.15-.606 1.35 1.35 0 00-.408-.41 2.56 2.56 0 00-.584-.274 5.983 5.983 0 00-.66-.19l-1.294-.287a6.68 6.68 0 01-.911-.29 2.888 2.888 0 01-.726-.41 1.715 1.715 0 01-.488-.6c-.117-.235-.173-.525-.173-.875 0-.408.09-.761.275-1.056a2.18 2.18 0 01.729-.71c.299-.177.628-.309.997-.394a4.972 4.972 0 011.095-.124c.418 0 .803.05 1.16.159.36.104.673.267.944.486.27.224.488.495.647.825.159.325.25.71.27 1.148h-1.008c-.007-.3-.07-.565-.192-.793zm9.766 0a1.643 1.643 0 00-.47-.56 2.022 2.022 0 00-.682-.325 3.216 3.216 0 00-.815-.104c-.221 0-.45.023-.681.072a2.055 2.055 0 00-.63.237c-.19.11-.344.253-.463.436a1.18 1.18 0 00-.175.661.92.92 0 00.165.558c.113.152.253.283.423.39.17.1.355.19.56.257.204.07.386.125.559.168l1.345.3c.287.041.57.115.857.226.275.11.53.256.744.435.222.178.397.401.538.662.14.26.21.569.21.928 0 .445-.103.819-.304 1.13a2.443 2.443 0 01-.777.755 3.3 3.3 0 01-1.06.417 5.519 5.519 0 01-1.168.127c-.971 0-1.756-.226-2.358-.677-.603-.45-.948-1.175-1.03-2.176h1.006c.045.673.29 1.18.743 1.519.453.341 1.016.516 1.686.516.242 0 .497-.03.758-.08a2.55 2.55 0 00.73-.268c.22-.129.403-.288.55-.484.143-.196.215-.433.215-.719 0-.237-.051-.442-.15-.606a1.35 1.35 0 00-.408-.41 2.514 2.514 0 00-.584-.274 6.128 6.128 0 00-.66-.19l-1.294-.287a6.54 6.54 0 01-.909-.29 2.921 2.921 0 01-.73-.41 1.76 1.76 0 01-.486-.6c-.117-.235-.175-.525-.175-.875 0-.408.093-.761.28-1.056.184-.295.43-.528.728-.71.297-.177.63-.309.998-.394a4.96 4.96 0 011.097-.124c.413 0 .803.05 1.158.159.36.104.67.267.944.486.27.224.488.495.649.825.158.325.247.71.268 1.148h-1.006a1.92 1.92 0 00-.196-.793zm8.896.899a4.1 4.1 0 01.715-1.346c.313-.39.698-.7 1.158-.94.46-.236.988-.355 1.595-.355.6 0 1.127.117 1.583.355.462.24.845.55 1.163.94.313.387.548.839.71 1.346.16.511.238 1.046.238 1.603 0 .558-.077 1.09-.239 1.6a4.09 4.09 0 01-.71 1.348c-.317.387-.7.7-1.162.928-.456.231-.99.346-1.597.346-.593 0-1.121-.115-1.581-.346a3.44 3.44 0 01-1.158-.928 4.134 4.134 0 01-.715-1.348 5.347 5.347 0 01-.236-1.6c0-.555.077-1.092.236-1.603zm.297 3.085c.144.473.36.89.644 1.252.29.364.642.654 1.063.866.422.219.908.325 1.459.325.549 0 1.027-.106 1.448-.325a3.066 3.066 0 001.06-.866c.29-.362.504-.78.649-1.252.145-.475.215-.968.215-1.482 0-.504-.07-.995-.215-1.467a3.79 3.79 0 00-.65-1.256 3.215 3.215 0 00-1.06-.874c-.42-.221-.898-.332-1.447-.332-.551 0-1.037.111-1.46.332a3.3 3.3 0 00-1.062.874 3.78 3.78 0 00-.644 1.256 4.976 4.976 0 00-.215 1.468c.002.511.072 1.006.215 1.481zm16.548 1.033c-.18.364-.416.668-.712.921-.292.252-.633.45-1.023.586-.39.136-.817.203-1.284.203-.584 0-1.107-.106-1.56-.32a3.293 3.293 0 01-1.14-.879 3.724 3.724 0 01-.705-1.283 4.984 4.984 0 01-.24-1.572c0-.585.08-1.148.231-1.675a4.23 4.23 0 01.703-1.406 3.487 3.487 0 011.198-.97c.488-.24 1.055-.364 1.707-.364.383 0 .75.057 1.102.175.35.117.663.286.943.505.273.22.507.497.694.83.186.33.305.713.362 1.142h-.32a2.91 2.91 0 00-.35-1.03 2.692 2.692 0 00-.624-.726 2.501 2.501 0 00-.829-.435 3.26 3.26 0 00-.974-.139c-.649 0-1.202.123-1.655.369a3.102 3.102 0 00-1.088.961c-.271.396-.47.837-.591 1.325a5.954 5.954 0 00-.182 1.44c0 .496.072.97.217 1.422.142.452.352.853.633 1.196.273.346.62.625 1.036.83.416.207.895.306 1.439.306.406 0 .784-.06 1.132-.177a2.83 2.83 0 00.934-.533c.274-.23.493-.502.666-.827.168-.322.268-.687.303-1.097h.318c-.047.452-.159.86-.34 1.222zm4.014-5.128c.138-.33.334-.613.598-.857.261-.244.581-.433.96-.567.375-.14.821-.207 1.335-.207.364 0 .705.037 1.028.108.326.074.614.203.859.387.243.184.441.422.59.72.15.292.227.66.241 1.103v5.157c0 .157.028.27.094.346a.486.486 0 00.254.147c.105.028.222.037.34.033.13-.005.24-.014.346-.023v.315h-.478a1.13 1.13 0 01-.619-.168c-.175-.11-.26-.32-.26-.62v-1.055h-.032c-.086.26-.222.514-.408.756a2.822 2.822 0 01-.703.647 3.657 3.657 0 01-.965.447c-.366.11-.759.169-1.184.169-.829 0-1.499-.183-1.996-.547-.502-.364-.752-.905-.752-1.629 0-.505.084-.913.248-1.214a1.93 1.93 0 01.646-.72c.267-.172.57-.292.911-.363.343-.07.682-.113 1.025-.132a277.8 277.8 0 001.453-.087 4.57 4.57 0 00.997-.16c.261-.078.455-.2.574-.363.126-.162.187-.395.187-.701a4.81 4.81 0 00-.066-.758 1.628 1.628 0 00-.313-.724c-.165-.221-.406-.403-.726-.546-.32-.143-.75-.212-1.293-.212-.862 0-1.534.205-2.013.622-.479.415-.747 1.003-.799 1.76h-.32c.024-.375.103-.732.24-1.064zm5.256 1.904c-.105.145-.27.258-.495.336-.224.08-.479.14-.768.182-.287.042-.6.07-.937.078-.336.01-.66.026-.978.049-.322.018-.635.06-.939.115a2.26 2.26 0 00-.805.316c-.236.157-.42.364-.56.631-.14.268-.208.618-.208 1.051 0 .228.042.461.119.682.08.228.217.427.408.602.19.172.437.315.74.426.304.11.682.166 1.128.166.53 0 1.007-.092 1.422-.267.416-.18.764-.413 1.044-.703.287-.288.495-.623.642-1.003.143-.378.218-.765.218-1.166v-1.498h-.03v.003zm11.792-3.376v.836h-1.677v5.49c0 .324.047.58.136.767.089.182.315.283.68.304.289 0 .576-.014.863-.046v.834c-.15 0-.3.007-.446.016a5.901 5.901 0 01-.45.016c-.668 0-1.14-.131-1.406-.39-.266-.253-.397-.73-.383-1.426v-5.567h-1.438v-.837h1.438v-2.445h1.006v2.445h1.677v.003zm4.457 0v1.908h.031c.255-.664.651-1.173 1.19-1.53.54-.358 1.183-.521 1.927-.489v.993c-.457-.02-.875.04-1.247.18a2.882 2.882 0 00-.969.608c-.268.26-.478.574-.63.94-.15.36-.224.759-.224 1.19v4.337H94.33V48.45h.93zm6.392 1.26c.172-.348.404-.631.698-.85a2.908 2.908 0 011.03-.489 5.11 5.11 0 011.309-.159c.365 0 .727.035 1.089.104.362.07.688.194.973.385.29.189.523.456.705.797.18.341.269.786.269 1.332v4.321c0 .401.201.6.591.6a.762.762 0 00.32-.063v.834c-.117.023-.22.037-.309.049-.093.011-.21.013-.345.013-.257 0-.46-.034-.617-.101a.821.821 0 01-.361-.293 1.105 1.105 0 01-.169-.447 4.384 4.384 0 01-.037-.576h-.03a7.09 7.09 0 01-.551.7 2.725 2.725 0 01-1.406.828 4.477 4.477 0 01-1.049.108 4.23 4.23 0 01-1.076-.131 2.498 2.498 0 01-.88-.426 2.03 2.03 0 01-.591-.74 2.474 2.474 0 01-.215-1.067c0-.567.126-1.012.383-1.33a2.373 2.373 0 011.016-.735 5.62 5.62 0 011.422-.352c.528-.07 1.06-.136 1.604-.2.215-.02.399-.047.56-.08a.935.935 0 00.4-.163.798.798 0 00.245-.325c.061-.136.089-.316.089-.537 0-.336-.056-.61-.166-.825a1.332 1.332 0 00-.467-.516 1.914 1.914 0 00-.684-.263 5.124 5.124 0 00-.843-.069c-.64 0-1.161.15-1.565.45-.406.3-.619.779-.64 1.44h-1.008c.035-.468.135-.876.306-1.224zm5.034 2.43c-.065.117-.185.2-.369.253-.182.053-.341.09-.479.11-.425.076-.866.14-1.319.2a7.667 7.667 0 00-1.24.256 2.59 2.59 0 00-.922.496c-.236.219-.36.525-.36.924 0 .254.054.477.157.673.095.196.235.364.404.507.168.138.369.249.59.323.225.071.453.11.687.11a3.5 3.5 0 001.104-.173c.351-.117.659-.283.92-.504.26-.222.467-.489.621-.805a2.37 2.37 0 00.234-1.073v-1.295h-.028v-.003zm5.321-3.69l2.59 7.143h.033l2.559-7.143h1.039l-3.087 8.137h-1.072l-3.18-8.137h1.118zm10.029 5.447a3.1 3.1 0 00.488 1.035c.225.304.505.558.848.756.339.2.754.3 1.233.3.733 0 1.31-.187 1.726-.567.415-.378.702-.883.861-1.514h1.009c-.215.926-.605 1.64-1.177 2.145-.567.505-1.375.758-2.417.758-.649 0-1.214-.113-1.688-.34a3.074 3.074 0 01-1.158-.932 3.926 3.926 0 01-.663-1.373 6.095 6.095 0 01-.215-1.646c0-.537.07-1.062.215-1.576.144-.514.364-.975.663-1.383a3.407 3.407 0 011.158-.979c.474-.247 1.039-.369 1.688-.369.656 0 1.224.132 1.693.397.467.26.852.608 1.14 1.03.294.428.504.915.632 1.47.129.548.18 1.11.159 1.678h-6.342c-.002.357.047.728.147 1.11zm4.986-3.035a2.859 2.859 0 00-.519-.919 2.596 2.596 0 00-.815-.65 2.375 2.375 0 00-1.085-.242c-.416 0-.785.08-1.105.242-.32.164-.588.383-.812.65a3.17 3.17 0 00-.538.926 4.461 4.461 0 00-.261 1.084h5.336a3.425 3.425 0 00-.201-1.09zm5.667-5.288h-1.007v11.26h1.007v-11.26zm-83.531-.258h-.234v11.296h.234V45.316zm34.381-29.002h-.231v40.282h.23V16.314z" fill="#fff"/></svg>