<svg width="9" height="14" viewBox="0 0 9 14" fill="none" xmlns="http://www.w3.org/2000/svg">
<path d="M4.35716 2.14687C4.34544 2.13516 4.33372 2.12344 4.31966 2.11406C4.31497 2.10937 4.30794 2.10469 4.30091 2.1C4.29388 2.09531 4.28684 2.08828 4.27981 2.08359C4.27278 2.07891 4.26575 2.07422 4.25872 2.06953C4.25168 2.06484 4.24465 2.06016 4.23762 2.05781C4.23059 2.05312 4.22356 2.05078 4.21418 2.04609C4.20715 2.04375 4.20012 2.03906 4.19308 2.03672C4.18605 2.03437 4.17902 2.03203 4.16964 2.02734C4.16261 2.025 4.15324 2.02266 4.1462 2.01797C4.13917 2.01562 4.13214 2.01328 4.12276 2.01328C4.11339 2.01094 4.10636 2.00859 4.09698 2.00625C4.08761 2.00391 4.07823 2.00391 4.0712 2.00156C4.06417 2.00156 4.05713 1.99922 4.0501 1.99922C4.01729 1.99687 3.98447 1.99687 3.95165 1.99922C3.94462 1.99922 3.93759 2.00156 3.93056 2.00156C3.92118 2.00391 3.91181 2.00391 3.90477 2.00625C3.8954 2.00859 3.88837 2.01094 3.87899 2.01328C3.87196 2.01562 3.86493 2.01797 3.85555 2.01797C3.84852 2.02031 3.83914 2.02266 3.83211 2.02734C3.82508 2.02969 3.81805 2.03203 3.80867 2.03672C3.80164 2.03906 3.79461 2.04375 3.78758 2.04609C3.78054 2.05078 3.77117 2.05312 3.76414 2.05781C3.7571 2.0625 3.75007 2.06484 3.74304 2.06953C3.73601 2.07422 3.72898 2.07891 3.72194 2.08359C3.71491 2.08828 3.70788 2.09297 3.70085 2.1C3.69382 2.10469 3.68913 2.10937 3.6821 2.11406C3.67038 2.12344 3.65631 2.13516 3.64459 2.14687L0.145032 5.64609C-0.0495178 5.84062 -0.0495178 6.15703 0.145032 6.35391C0.339583 6.55078 0.656019 6.54844 0.852914 6.35391L3.50395 3.70781L3.50395 11.5008C3.50395 11.775 3.72898 12 4.00322 12C4.27747 12 4.50249 11.775 4.50249 11.5008L4.50249 3.70781L7.15119 6.35391C7.34574 6.54844 7.66217 6.54844 7.85907 6.35391C8.05596 6.15938 8.05362 5.84297 7.85907 5.64609L4.35716 2.14687Z" fill="#FFFFFF"/>
<path d="M0.499267 14.001L7.50073 14.001C7.77498 14.001 8 13.776 8 13.4994C8 13.2229 7.77498 13.0002 7.50073 13.0002L0.499268 13.0002C0.222678 13.0002 3.03101e-07 13.2252 2.79128e-07 13.4994C2.55155e-07 13.7736 0.222678 14.001 0.499267 14.001Z" fill="#FFFFFF"/>
</svg>