<svg version="1.1" id="Layer_1" xmlns="http://www.w3.org/2000/svg" x="0" y="0" viewBox="0 0 5333 3000" xml:space="preserve"><style>.st0{fill:#e1ebf7}.st1{fill:#c7d3e5}</style><g id="Layer_26"><g id="XMLID_44_"><path id="XMLID_8_" class="st0" d="M2666.5 1997.2C1645.2 1997.2 712.2 2375.6 0 2999.9h5333c-712.2-624.3-1645.2-1002.7-2666.5-1002.7z"/><path id="XMLID_15_" class="st1" d="M0 2999.9h3572c-2725.9 0-2834.4-514.2-2834.4-514.2-265.1 144-512.4 316.8-737.6 514.2z"/><ellipse id="XMLID_3_" class="st1" cx="2666.5" cy="2172" rx="341.9" ry="109.4"/><ellipse id="XMLID_11_" class="st1" cx="3566.4" cy="2467.7" rx="197.2" ry="63.1"/><path id="XMLID_13_" class="st1" d="M2038 2173.9c4.5 21.5-46.2 50.3-113.3 64.5-67.1 14.1-125.1 8.2-129.7-13.3-4.5-21.5 46.2-50.3 113.3-64.5 67.1-14.1 125.2-8.2 129.7 13.3z"/><path id="XMLID_28_" class="st1" d="M1276.5 2405.6c151.8-55.7 255.8-160.8 242.8-243.5-199.8 59.3-394.1 133.1-579.8 221 49 65 190.7 76.1 337 22.5z"/><ellipse id="XMLID_7_" transform="rotate(-28.115 811.566 2625.284)" class="st0" cx="811.7" cy="2625.2" rx="193.3" ry="80.9"/><ellipse id="XMLID_10_" transform="rotate(-15.528 1210.764 2775.816)" class="st0" cx="1210.5" cy="2776" rx="96.6" ry="52.5"/><path id="XMLID_19_" class="st1" d="M3211.1 2837.8c-1.3-30.8-37.2-58.9-86.1-71 29.8 13.2 49.7 33.5 50.6 55.4 1.5 35.6-48.1 61.7-110.7 58.4-38.5-2-72.9-14.7-94.1-32.4 18 28.5 64.9 50.7 119.2 53.5 68.5 3.7 122.7-24.9 121.1-63.9z"/><path id="XMLID_9_" class="st1" d="M4620.1 2748.3c-4.4-49.5-64.3-91.9-143.9-107.7 48.9 19 82.6 50.2 85.6 85.3 5 57.1-72.8 102.9-173.8 102.3-62.1-.4-118.4-18.2-153.8-45.1 31 44.4 108.2 76.7 195.8 77.2 110.5.6 195.6-49.5 190.1-112z"/><path id="XMLID_20_" class="st1" d="M3776.9 2961.9c-8.1-39.7-65.7-68.3-138.9-73.4 45.7 10.6 78.7 32.7 84.4 60.8 3.6 17.7-4.1 35.2-20.2 50.6h66.8c7.6-12.1 10.6-25 7.9-38z"/></g></g></svg>