<svg version="1.1" id="Layer_1" xmlns="http://www.w3.org/2000/svg" xmlns:xlink="http://www.w3.org/1999/xlink" x="0" y="0" viewBox="0 0 5333 3000" xml:space="preserve"><style>.st6{fill:#c23e27}.st7{fill:#e1ebf7}.st8{fill:#0374b6}.st9{fill:#f3f3f3}.st10{fill:#558ac8}</style><g id="Layer_33"><path id="XMLID_1_" fill="#171844" d="M0 .1h5333v2999.8H0z"/></g><g id="Layer_27"><g id="XMLID_56_" opacity=".54"><g id="XMLID_367_"><defs><path id="SVGID_1_" d="M1 1h1L1 2z"/></defs><defs><path id="SVGID_2_" d="M-1-1h-1l1-1z"/></defs><clipPath id="SVGID_3_"><use xlink:href="#SVGID_1_" overflow="visible"/></clipPath><clipPath id="SVGID_4_" clip-path="url(#SVGID_3_)"><use xlink:href="#SVGID_2_" overflow="visible"/></clipPath><linearGradient id="XMLID_5_" gradientUnits="userSpaceOnUse" x1="2666.5" y1=".1" x2="2666.5" y2="2175" gradientTransform="matrix(1 0 0 -1 0 3000)"><stop offset="0" stop-color="#fff"/><stop offset=".065" stop-color="#f9f9f9"/><stop offset=".151" stop-color="#e8e8e8"/><stop offset=".251" stop-color="#ccc"/><stop offset=".359" stop-color="#a5a5a5"/><stop offset=".475" stop-color="#737373"/><stop offset=".595" stop-color="#373737"/><stop offset=".694"/></linearGradient><path id="XMLID_368_" clip-path="url(#SVGID_4_)" fill="url(#XMLID_5_)" d="M0 825h5333v2174.9H0z"/></g><linearGradient id="XMLID_6_" gradientUnits="userSpaceOnUse" x1="2666.5" y1=".1" x2="2666.5" y2="2175" gradientTransform="matrix(1 0 0 -1 0 3000)"><stop offset="0" stop-color="#171843"/><stop offset=".694" stop-color="#171843"/></linearGradient><path id="XMLID_99_" fill="url(#XMLID_6_)" d="M0 825h5333v2174.9H0z"/></g></g><g id="Layer_4"><g id="XMLID_226_"><path id="XMLID_100_" class="st6" d="M1425.9 753.3c-2.3-2.7-6.3-3.4-9.4-1.7l-81.9 46.2c-3.6 2-5.3 6.5-3.4 10.2 1.9 3.9 6.7 5.4 10.5 3.2l82.3-46.4c4.1-2.3 5.1-7.8 1.9-11.5.1 0 0 0 0 0z"/><path id="XMLID_96_" class="st6" d="M1803.2 542.4s0-.1 0 0c-2-4-6.8-5.5-10.5-3.3l-290.8 164c-4 2.3-5.1 7.6-2.2 11.2l.1.1c2.3 2.9 6.3 3.6 9.5 1.8l290.7-164c3.6-1.9 4.9-6.2 3.2-9.8z"/></g><path id="XMLID_12_" class="st7" d="M3706.6 1164.1c-3.5-6.2-13.4-6.3-16.2-4.7l-402.2 226.8c-2.8 1.6-8.6 10.6-5.1 16.8s14.9 7.2 17.7 5.6l402.2-226.8c2.9-1.5 7.1-11.5 3.6-17.7z"/><g id="XMLID_14_"><path id="XMLID_95_" class="st8" d="M4468.9 2607.4l706.7-398.6c4.9-2.8 6.7-9.1 3.9-14-2.8-4.9-9.1-6.7-14-3.9l-706.7 398.6c-4.9 2.8-6.7 9.1-3.9 14 2.8 5 9 6.7 14 3.9z"/><path id="XMLID_86_" class="st8" d="M4325.2 2688.5l69.8-39.4c4.9-2.8 6.7-9.1 3.9-14s-9.1-6.7-14-3.9l-69.8 39.4c-4.9 2.8-6.7 9.1-3.9 14s9 6.7 14 3.9z"/></g><path id="XMLID_101_" class="st6" d="M4846.4 1990.6l-12.2-6.2c-8.8-4.5-16-11.5-20.6-20.2l-8.4-15.8c-2.9-5.4-10.7-5.4-13.6 0l-7.6 14.4c-4.5 8.4-11.3 15.4-19.8 19.9l-14.8 8c-5.5 3-5.3 10.9.3 13.7l13.3 6.4c9.7 4.7 17.6 12.6 22.3 22.3l6.2 12.7c2.8 5.8 11 5.8 13.8 0l6.6-13.6c4.9-10 13-18 23.2-22.7l11.1-5.1c5.8-2.7 5.9-10.9.2-13.8z"/><path id="XMLID_212_" class="st6" d="M3174.5 371.3l-7.8-4c-5.6-2.9-10.2-7.4-13.2-12.9l-5.4-10.1c-1.8-3.5-6.8-3.5-8.7 0l-4.9 9.2c-2.8 5.4-7.2 9.8-12.6 12.7l-9.5 5.1c-3.5 1.9-3.4 7 .2 8.7l8.5 4.1c6.2 3 11.3 8 14.3 14.2l3.9 8.1c1.8 3.7 7 3.7 8.8 0l4.2-8.7c3.1-6.4 8.3-11.5 14.8-14.5l7.1-3.3c3.9-1.5 4-6.7.3-8.6z"/><path id="XMLID_102_" class="st9" d="M383.7 1209.7l-8.8-4.5c-6.3-3.2-11.5-8.3-14.8-14.5l-6-11.3c-2.1-3.9-7.7-3.9-9.7 0l-5.5 10.4c-3.2 6.1-8.1 11-14.2 14.3l-10.6 5.7c-4 2.1-3.8 7.8.2 9.8l9.5 4.6c7 3.4 12.6 9 16 16l4.4 9.1c2 4.1 7.9 4.1 9.9 0l4.7-9.8c3.5-7.2 9.4-12.9 16.6-16.3l8-3.7c4.3-1.8 4.4-7.7.3-9.8z"/><path id="XMLID_103_" class="st9" d="M4282.7 956.7l-12.2-6.2c-8.8-4.5-16-11.5-20.6-20.2l-8.4-15.8c-2.9-5.4-10.7-5.4-13.5 0l-7.6 14.4c-4.5 8.4-11.3 15.4-19.7 19.9l-14.8 8c-5.5 3-5.3 10.9.3 13.7l13.3 6.4c9.7 4.7 17.6 12.6 22.3 22.3l6.2 12.7c2.8 5.8 11 5.8 13.8 0l6.6-13.6c4.9-10 13-18 23.1-22.6l11.1-5.1c5.6-2.8 5.8-11 .1-13.9z"/><circle id="XMLID_85_" transform="rotate(-45.001 4369.136 1625.364)" class="st8" cx="4369.1" cy="1625.3" r="27.8"/><circle id="XMLID_140_" transform="rotate(-76.879 843.498 990.82)" class="st7" cx="843.5" cy="990.8" r="57.5"/><g id="XMLID_119_"><g id="XMLID_137_"><path id="XMLID_147_" class="st10" d="M4237 377.7c41.9 0 76 34.1 76 76s-34.1 76-76 76-76-34.1-76-76c.1-41.9 34.1-76 76-76m0-16.7c-51.2 0-92.6 41.5-92.6 92.7s41.5 92.6 92.6 92.6c51.2 0 92.6-41.5 92.6-92.6.1-51.2-41.4-92.7-92.6-92.7z"/></g></g><circle id="XMLID_144_" class="st10" cx="1295.9" cy="1161.2" r="22.3"/><circle id="XMLID_120_" transform="rotate(-45.001 3090.953 990.824)" class="st10" cx="3090.9" cy="990.8" r="22.3"/><path id="XMLID_122_" class="st7" d="M2516.8 952.1c0 6.2-5 11.2-11.2 11.2s-11.2-5-11.2-11.2 5-11.2 11.2-11.2c6.2 0 11.2 5 11.2 11.2z"/><circle id="XMLID_168_" class="st8" cx="4886.9" cy="761.4" r="88.9"/><circle id="XMLID_126_" transform="rotate(-76.714 5051.242 232.278)" cx="5051.1" cy="232.3" fill="#ecf1f9" r="22.7"/><circle id="XMLID_169_" class="st6" cx="664.1" cy="1885.4" r="27.1"/><g id="XMLID_204_"><path id="XMLID_207_" class="st8" d="M4361.6 1939.4l706.7-398.6c4.9-2.8 6.7-9.1 3.9-14-2.8-4.9-9.1-6.7-14-3.9l-706.7 398.6c-4.9 2.8-6.7 9.1-3.9 14 2.7 5 9 6.7 14 3.9z"/><path id="XMLID_209_" class="st8" d="M4217.9 2020.5l69.8-39.4c4.9-2.8 6.7-9.1 3.9-14-2.8-4.9-9.1-6.7-14-3.9l-69.8 39.4c-4.9 2.8-6.7 9.1-3.9 14 2.7 4.9 9 6.7 14 3.9z"/></g><g id="XMLID_90_"><path id="XMLID_133_" class="st8" d="M465.8 2370.3L354.6 2433c-4.8 2.7-7.1 8.8-4.7 13.8 2.6 5.3 9.2 7.3 14.3 4.4l111.7-63c5.6-3.2 6.9-10.6 2.7-15.5 0-.1-.1-.1-.1-.2-3.2-3.6-8.5-4.5-12.7-2.2z"/><path id="XMLID_117_" class="st8" d="M903.4 2123.5l-394.8 222.7c-5.5 3.1-6.9 10.4-2.9 15.2l.1.2c3.1 3.9 8.6 4.9 12.9 2.5l394.8-222.7c4.7-2.6 6.5-8.5 4.1-13.3 0-.1-.1-.1-.1-.2-2.5-5.2-9-7.2-14.1-4.4z"/><path id="XMLID_94_" class="st8" d="M220.5 2532.3l69.8-39.4c4.9-2.8 6.7-9.1 3.9-14-2.8-4.9-9.1-6.7-14-3.9l-69.8 39.4c-4.9 2.8-6.7 9.1-3.9 14 2.8 4.9 9.1 6.7 14 3.9z"/></g><circle id="XMLID_127_" transform="rotate(-28.156 2612.542 231.888)" class="st8" cx="2612.7" cy="231.9" r="33.1"/><path id="XMLID_106_" class="st8" d="M3907.6 216.9L3497.9 448c-5.7 3.2-7.1 10.7-3 15.8l.1.2c3.2 4 8.9 5.1 13.4 2.6l409.6-231c4.9-2.7 6.7-8.8 4.3-13.8 0-.1-.1-.1-.1-.2-2.6-5.6-9.3-7.7-14.6-4.7z"/><path id="XMLID_205_" class="st7" d="M480.1 1529.7c-2.8-4.9-10.7-5-12.9-3.7l-321 181c-2.2 1.3-6.8 8.5-4.1 13.4 2.8 4.9 11.9 5.7 14.2 4.5l321-181c2.2-1.3 5.5-9.3 2.8-14.2z"/><g id="XMLID_7_"><path id="XMLID_10_" class="st8" d="M2687.2 2659.5l-111.2 62.7c-4.8 2.7-7.1 8.8-4.7 13.8 2.6 5.3 9.2 7.3 14.3 4.4l111.7-63c5.6-3.2 6.9-10.6 2.7-15.5 0-.1-.1-.1-.1-.2-3.2-3.7-8.5-4.6-12.7-2.2z"/><path id="XMLID_9_" class="st8" d="M3124.7 2412.7l-394.8 222.7c-5.5 3.1-6.9 10.4-2.9 15.2l.1.2c3.1 3.9 8.6 4.9 12.9 2.5l394.8-222.7c4.7-2.6 6.5-8.5 4.1-13.3 0-.1-.1-.1-.1-.2-2.4-5.3-9-7.3-14.1-4.4z"/><path id="XMLID_8_" class="st8" d="M2441.9 2821.4l69.8-39.4c4.9-2.8 6.7-9.1 3.9-14s-9.1-6.7-14-3.9l-69.8 39.4c-4.9 2.8-6.7 9.1-3.9 14 2.8 5 9 6.7 14 3.9z"/></g><path id="XMLID_3_" class="st7" d="M2885.4 2106.8c-2.8-4.9-10.7-5-12.9-3.7l-321 181c-2.2 1.3-6.8 8.5-4.1 13.4 2.8 4.9 11.9 5.7 14.2 4.5l321-181c2.3-1.3 5.6-9.3 2.8-14.2z"/><g id="XMLID_15_"><path id="XMLID_19_" class="st6" d="M1729.8 2525.5l109.1-66.3c4.8-2.9 6.9-9 4.2-13.9-2.8-5.2-9.4-7-14.4-3.9l-109.6 66.6c-5.5 3.3-6.6 10.8-2.2 15.6 0 .1.1.1.1.2 3.3 3.5 8.6 4.3 12.8 1.7z"/><path id="XMLID_18_" class="st6" d="M1300.4 2786.3l387.5-235.3c5.4-3.3 6.5-10.6 2.4-15.3l-.1-.2c-3.3-3.8-8.8-4.6-13-2.1l-387.4 235.3c-4.6 2.8-6.2 8.7-3.7 13.5 0 .1.1.1.1.2 2.6 5.2 9.2 7 14.2 3.9z"/><path id="XMLID_16_" class="st6" d="M1969.7 2355.8l-68.5 41.6c-4.9 2.9-6.4 9.3-3.5 14.1 2.9 4.9 9.3 6.4 14.1 3.5l68.5-41.6c4.9-2.9 6.4-9.3 3.5-14.1s-9.2-6.5-14.1-3.5z"/></g></g></svg>